<?xml version="1.0" encoding="UTF-8"?>
<!--Generator: Apple Native CoreSVG 123-->
<!DOCTYPE svg
PUBLIC "-//W3C//DTD SVG 1.1//EN"
       "http://www.w3.org/Graphics/SVG/1.1/DTD/svg11.dtd">
<svg version="1.1" xmlns="http://www.w3.org/2000/svg" xmlns:xlink="http://www.w3.org/1999/xlink" width="3300" height="2200">
 <!--glyph: "uni1002F0.medium", point size: 100.000000, font version: "Version 15.0d7e11", template writer version: "5"-->
 <g id="Notes">
  <rect height="2200" id="artboard" style="fill:white;opacity:1" width="3300" x="0" y="0"/>
  <line id="" style="fill:none;stroke:black;opacity:1;stroke-width:0.5;" x1="263" x2="3036" y1="292" y2="292"/>
  <text style="stroke:none;fill:black;font-family:-apple-system,&quot;SF Pro Display&quot;,&quot;SF Pro Text&quot;,Helvetica,sans-serif;font-weight:bold;" transform="matrix(1 0 0 1 263 322)">Weight/Scale Variations</text>
  <text style="stroke:none;fill:black;font-family:-apple-system,&quot;SF Pro Display&quot;,&quot;SF Pro Text&quot;,Helvetica,sans-serif;text-anchor:middle;" transform="matrix(1 0 0 1 559.711 322)">Ultralight</text>
  <text style="stroke:none;fill:black;font-family:-apple-system,&quot;SF Pro Display&quot;,&quot;SF Pro Text&quot;,Helvetica,sans-serif;text-anchor:middle;" transform="matrix(1 0 0 1 856.422 322)">Thin</text>
  <text style="stroke:none;fill:black;font-family:-apple-system,&quot;SF Pro Display&quot;,&quot;SF Pro Text&quot;,Helvetica,sans-serif;text-anchor:middle;" transform="matrix(1 0 0 1 1153.13 322)">Light</text>
  <text style="stroke:none;fill:black;font-family:-apple-system,&quot;SF Pro Display&quot;,&quot;SF Pro Text&quot;,Helvetica,sans-serif;text-anchor:middle;" transform="matrix(1 0 0 1 1449.84 322)">Regular</text>
  <text style="stroke:none;fill:black;font-family:-apple-system,&quot;SF Pro Display&quot;,&quot;SF Pro Text&quot;,Helvetica,sans-serif;text-anchor:middle;" transform="matrix(1 0 0 1 1746.56 322)">Medium</text>
  <text style="stroke:none;fill:black;font-family:-apple-system,&quot;SF Pro Display&quot;,&quot;SF Pro Text&quot;,Helvetica,sans-serif;text-anchor:middle;" transform="matrix(1 0 0 1 2043.27 322)">Semibold</text>
  <text style="stroke:none;fill:black;font-family:-apple-system,&quot;SF Pro Display&quot;,&quot;SF Pro Text&quot;,Helvetica,sans-serif;text-anchor:middle;" transform="matrix(1 0 0 1 2339.98 322)">Bold</text>
  <text style="stroke:none;fill:black;font-family:-apple-system,&quot;SF Pro Display&quot;,&quot;SF Pro Text&quot;,Helvetica,sans-serif;text-anchor:middle;" transform="matrix(1 0 0 1 2636.69 322)">Heavy</text>
  <text style="stroke:none;fill:black;font-family:-apple-system,&quot;SF Pro Display&quot;,&quot;SF Pro Text&quot;,Helvetica,sans-serif;text-anchor:middle;" transform="matrix(1 0 0 1 2933.4 322)">Black</text>
  <line id="" style="fill:none;stroke:black;opacity:1;stroke-width:0.5;" x1="263" x2="3036" y1="1903" y2="1903"/>
  <g id="" transform="matrix(1 0 0 1 263 1933)">
   <path d="M 9.24805 0.830078 C 13.5547 0.830078 17.1387 -2.74414 17.1387 -7.05078 C 17.1387 -11.3574 13.5449 -14.9316 9.23828 -14.9316 C 4.94141 -14.9316 1.36719 -11.3574 1.36719 -7.05078 C 1.36719 -2.74414 4.95117 0.830078 9.24805 0.830078 Z M 9.24805 -0.654297 C 5.70312 -0.654297 2.87109 -3.49609 2.87109 -7.05078 C 2.87109 -10.6055 5.69336 -13.4473 9.23828 -13.4473 C 12.793 -13.4473 15.6348 -10.6055 15.6445 -7.05078 C 15.6543 -3.49609 12.8027 -0.654297 9.24805 -0.654297 Z M 9.22852 -3.42773 C 9.69727 -3.42773 9.9707 -3.74023 9.9707 -4.25781 L 9.9707 -6.31836 L 12.1973 -6.31836 C 12.6953 -6.31836 13.0371 -6.57227 13.0371 -7.04102 C 13.0371 -7.51953 12.7148 -7.7832 12.1973 -7.7832 L 9.9707 -7.7832 L 9.9707 -10.0098 C 9.9707 -10.5273 9.69727 -10.8496 9.22852 -10.8496 C 8.75977 -10.8496 8.50586 -10.5078 8.50586 -10.0098 L 8.50586 -7.7832 L 6.29883 -7.7832 C 5.78125 -7.7832 5.44922 -7.51953 5.44922 -7.04102 C 5.44922 -6.57227 5.80078 -6.31836 6.29883 -6.31836 L 8.50586 -6.31836 L 8.50586 -4.25781 C 8.50586 -3.75977 8.75977 -3.42773 9.22852 -3.42773 Z"/>
  </g>
  <g id="" transform="matrix(1 0 0 1 281.506 1933)">
   <path d="M 11.709 2.91016 C 17.1582 2.91016 21.6699 -1.60156 21.6699 -7.05078 C 21.6699 -12.4902 17.1484 -17.0117 11.6992 -17.0117 C 6.25977 -17.0117 1.74805 -12.4902 1.74805 -7.05078 C 1.74805 -1.60156 6.26953 2.91016 11.709 2.91016 Z M 11.709 1.25 C 7.09961 1.25 3.41797 -2.44141 3.41797 -7.05078 C 3.41797 -11.6504 7.08984 -15.3516 11.6992 -15.3516 C 16.3086 -15.3516 20 -11.6504 20.0098 -7.05078 C 20.0195 -2.44141 16.3184 1.25 11.709 1.25 Z M 11.6895 -2.41211 C 12.207 -2.41211 12.5195 -2.77344 12.5195 -3.33984 L 12.5195 -6.23047 L 15.5762 -6.23047 C 16.123 -6.23047 16.5039 -6.51367 16.5039 -7.03125 C 16.5039 -7.55859 16.1426 -7.86133 15.5762 -7.86133 L 12.5195 -7.86133 L 12.5195 -10.9277 C 12.5195 -11.5039 12.207 -11.8555 11.6895 -11.8555 C 11.1719 -11.8555 10.8789 -11.4844 10.8789 -10.9277 L 10.8789 -7.86133 L 7.83203 -7.86133 C 7.26562 -7.86133 6.89453 -7.55859 6.89453 -7.03125 C 6.89453 -6.51367 7.28516 -6.23047 7.83203 -6.23047 L 10.8789 -6.23047 L 10.8789 -3.33984 C 10.8789 -2.79297 11.1719 -2.41211 11.6895 -2.41211 Z"/>
  </g>
  <g id="" transform="matrix(1 0 0 1 304.924 1933)">
   <path d="M 14.9707 5.67383 C 21.9336 5.67383 27.6953 -0.078125 27.6953 -7.04102 C 27.6953 -14.0039 21.9238 -19.7559 14.9609 -19.7559 C 8.00781 -19.7559 2.25586 -14.0039 2.25586 -7.04102 C 2.25586 -0.078125 8.01758 5.67383 14.9707 5.67383 Z M 14.9707 3.85742 C 8.93555 3.85742 4.08203 -1.00586 4.08203 -7.04102 C 4.08203 -13.0762 8.92578 -17.9395 14.9609 -17.9395 C 21.0059 -17.9395 25.8594 -13.0762 25.8691 -7.04102 C 25.8789 -1.00586 21.0156 3.85742 14.9707 3.85742 Z M 14.9512 -1.06445 C 15.5176 -1.06445 15.8691 -1.45508 15.8691 -2.06055 L 15.8691 -6.13281 L 20.1074 -6.13281 C 20.6934 -6.13281 21.1133 -6.46484 21.1133 -7.02148 C 21.1133 -7.59766 20.7227 -7.93945 20.1074 -7.93945 L 15.8691 -7.93945 L 15.8691 -12.1875 C 15.8691 -12.8027 15.5176 -13.1934 14.9512 -13.1934 C 14.3848 -13.1934 14.0625 -12.7832 14.0625 -12.1875 L 14.0625 -7.93945 L 9.83398 -7.93945 C 9.21875 -7.93945 8.80859 -7.59766 8.80859 -7.02148 C 8.80859 -6.46484 9.23828 -6.13281 9.83398 -6.13281 L 14.0625 -6.13281 L 14.0625 -2.06055 C 14.0625 -1.47461 14.3848 -1.06445 14.9512 -1.06445 Z"/>
  </g>
  <text style="stroke:none;fill:black;font-family:-apple-system,&quot;SF Pro Display&quot;,&quot;SF Pro Text&quot;,Helvetica,sans-serif;font-weight:bold;" transform="matrix(1 0 0 1 263 1953)">Design Variations</text>
  <text style="stroke:none;fill:black;font-family:-apple-system,&quot;SF Pro Display&quot;,&quot;SF Pro Text&quot;,Helvetica,sans-serif;" transform="matrix(1 0 0 1 263 1971)">Symbols are supported in up to nine weights and three scales.</text>
  <text style="stroke:none;fill:black;font-family:-apple-system,&quot;SF Pro Display&quot;,&quot;SF Pro Text&quot;,Helvetica,sans-serif;" transform="matrix(1 0 0 1 263 1989)">For optimal layout with text and other symbols, vertically align</text>
  <text style="stroke:none;fill:black;font-family:-apple-system,&quot;SF Pro Display&quot;,&quot;SF Pro Text&quot;,Helvetica,sans-serif;" transform="matrix(1 0 0 1 263 2007)">symbols with the adjacent text.</text>
  <rect height="14" id="" style="fill:#00AEEF;stroke:none;opacity:0.4;" width="3" x="776" y="1919"/>
  <g id="" transform="matrix(1 0 0 1 779 1933)">
   <path d="M 10.5273 0 L 12.373 0 L 7.17773 -14.0918 L 5.43945 -14.0918 L 0.244141 0 L 2.08984 0 L 3.50586 -4.0332 L 9.11133 -4.0332 Z M 6.2793 -11.9531 L 6.33789 -11.9531 L 8.59375 -5.52734 L 4.02344 -5.52734 Z"/>
  </g>
  <rect height="14" id="" style="fill:#00AEEF;stroke:none;opacity:0.4;" width="3" x="791.617" y="1919"/>
  <text style="stroke:none;fill:black;font-family:-apple-system,&quot;SF Pro Display&quot;,&quot;SF Pro Text&quot;,Helvetica,sans-serif;font-weight:bold;" transform="matrix(1 0 0 1 776 1953)">Margins</text>
  <text style="stroke:none;fill:black;font-family:-apple-system,&quot;SF Pro Display&quot;,&quot;SF Pro Text&quot;,Helvetica,sans-serif;" transform="matrix(1 0 0 1 776 1971)">Leading and trailing margins on the left and right side of each symbol</text>
  <text style="stroke:none;fill:black;font-family:-apple-system,&quot;SF Pro Display&quot;,&quot;SF Pro Text&quot;,Helvetica,sans-serif;" transform="matrix(1 0 0 1 776 1989)">can be adjusted by modifying the width of the blue rectangles.</text>
  <text style="stroke:none;fill:black;font-family:-apple-system,&quot;SF Pro Display&quot;,&quot;SF Pro Text&quot;,Helvetica,sans-serif;" transform="matrix(1 0 0 1 776 2007)">Modifications are automatically applied proportionally to all</text>
  <text style="stroke:none;fill:black;font-family:-apple-system,&quot;SF Pro Display&quot;,&quot;SF Pro Text&quot;,Helvetica,sans-serif;" transform="matrix(1 0 0 1 776 2025)">scales and weights.</text>
  <g id="" transform="matrix(1 0 0 1 1289 1933)">
   <path d="M 2.83203 3.11523 L 4.375 4.6582 C 5.22461 5.48828 6.19141 5.41992 7.06055 4.46289 L 17.2754 -6.66016 C 17.7051 -6.36719 18.0957 -6.37695 18.5645 -6.47461 L 19.6094 -6.68945 L 20.3027 -5.99609 L 20.2539 -5.47852 C 20.1855 -4.95117 20.3516 -4.53125 20.8496 -4.0332 L 21.6602 -3.22266 C 22.168 -2.71484 22.8223 -2.68555 23.3008 -3.16406 L 26.5527 -6.41602 C 27.0312 -6.89453 27.0117 -7.54883 26.5039 -8.05664 L 25.6836 -8.87695 C 25.1855 -9.375 24.7754 -9.55078 24.2383 -9.47266 L 23.7109 -9.41406 L 23.0566 -10.0781 L 23.3398 -11.2207 C 23.4863 -11.7871 23.3398 -12.2559 22.7148 -12.8613 L 20.3027 -15.2539 C 16.7578 -18.7793 12.2266 -18.6719 9.11133 -15.5371 C 8.69141 -15.1074 8.64258 -14.5215 8.91602 -14.0918 C 9.15039 -13.7207 9.62891 -13.4961 10.2734 -13.6621 C 11.7871 -14.043 13.3008 -13.9258 14.7852 -12.9199 L 14.1602 -11.3379 C 13.9258 -10.752 13.9453 -10.2734 14.1797 -9.83398 L 3.01758 0.439453 C 2.08008 1.30859 1.97266 2.25586 2.83203 3.11523 Z M 10.6738 -15.1465 C 13.3398 -17.1387 16.6504 -16.8262 19.0527 -14.4141 L 21.6797 -11.8066 C 21.9141 -11.5723 21.9434 -11.3867 21.8848 -11.0938 L 21.5039 -9.53125 L 23.0762 -7.95898 L 24.043 -8.04688 C 24.3262 -8.07617 24.4141 -8.05664 24.6387 -7.83203 L 25.2637 -7.20703 L 22.5098 -4.46289 L 21.8848 -5.07812 C 21.6602 -5.30273 21.6406 -5.40039 21.6699 -5.68359 L 21.7578 -6.64062 L 20.1953 -8.20312 L 18.5742 -7.89062 C 18.291 -7.83203 18.1445 -7.83203 17.9102 -8.07617 L 15.7324 -10.2539 C 15.5078 -10.4883 15.4785 -10.625 15.6055 -10.9473 L 16.5527 -13.2227 C 14.9512 -14.7559 12.8418 -15.6055 10.8008 -14.9512 C 10.7129 -14.9219 10.6445 -14.9414 10.6152 -14.9805 C 10.5859 -15.0293 10.5859 -15.0781 10.6738 -15.1465 Z M 4.10156 2.41211 C 3.61328 1.91406 3.78906 1.61133 4.12109 1.30859 L 15.0781 -8.80859 L 16.3086 -7.57812 L 6.15234 3.34961 C 5.84961 3.68164 5.46875 3.7793 5.06836 3.37891 Z"/>
  </g>
  <text style="stroke:none;fill:black;font-family:-apple-system,&quot;SF Pro Display&quot;,&quot;SF Pro Text&quot;,Helvetica,sans-serif;font-weight:bold;" transform="matrix(1 0 0 1 1289 1953)">Exporting</text>
  <text style="stroke:none;fill:black;font-family:-apple-system,&quot;SF Pro Display&quot;,&quot;SF Pro Text&quot;,Helvetica,sans-serif;" transform="matrix(1 0 0 1 1289 1971)">Symbols should be outlined when exporting to ensure the</text>
  <text style="stroke:none;fill:black;font-family:-apple-system,&quot;SF Pro Display&quot;,&quot;SF Pro Text&quot;,Helvetica,sans-serif;" transform="matrix(1 0 0 1 1289 1989)">design is preserved when submitting to Xcode.</text>
  <text id="template-version" style="stroke:none;fill:black;font-family:-apple-system,&quot;SF Pro Display&quot;,&quot;SF Pro Text&quot;,Helvetica,sans-serif;text-anchor:end;" transform="matrix(1 0 0 1 3036 1933)">Template v.1.0</text>
  <text style="stroke:none;fill:black;font-family:-apple-system,&quot;SF Pro Display&quot;,&quot;SF Pro Text&quot;,Helvetica,sans-serif;text-anchor:end;" transform="matrix(1 0 0 1 3036 1951)">Generated from eye.slash.fill</text>
  <text style="stroke:none;fill:black;font-family:-apple-system,&quot;SF Pro Display&quot;,&quot;SF Pro Text&quot;,Helvetica,sans-serif;text-anchor:end;" transform="matrix(1 0 0 1 3036 1969)">Typeset at 100 points</text>
  <text style="stroke:none;fill:black;font-family:-apple-system,&quot;SF Pro Display&quot;,&quot;SF Pro Text&quot;,Helvetica,sans-serif;" transform="matrix(1 0 0 1 263 726)">Small</text>
  <text style="stroke:none;fill:black;font-family:-apple-system,&quot;SF Pro Display&quot;,&quot;SF Pro Text&quot;,Helvetica,sans-serif;" transform="matrix(1 0 0 1 263 1156)">Medium</text>
  <text style="stroke:none;fill:black;font-family:-apple-system,&quot;SF Pro Display&quot;,&quot;SF Pro Text&quot;,Helvetica,sans-serif;" transform="matrix(1 0 0 1 263 1586)">Large</text>
 </g>
 <g id="Guides">
  <g id="H-reference" style="fill:#27AAE1;stroke:none;" transform="matrix(1 0 0 1 339 696)">
   <path d="M 54.9316 0 L 57.666 0 L 30.5664 -70.459 L 28.0762 -70.459 L 0.976562 0 L 3.66211 0 L 12.9395 -24.4629 L 45.7031 -24.4629 Z M 29.1992 -67.0898 L 29.4434 -67.0898 L 44.8242 -26.709 L 13.8184 -26.709 Z"/>
  </g>
  <line id="Baseline-S" style="fill:none;stroke:#27AAE1;opacity:1;stroke-width:0.577;" x1="263" x2="3036" y1="696" y2="696"/>
  <line id="Capline-S" style="fill:none;stroke:#27AAE1;opacity:1;stroke-width:0.577;" x1="263" x2="3036" y1="625.541" y2="625.541"/>
  <g id="H-reference" style="fill:#27AAE1;stroke:none;" transform="matrix(1 0 0 1 339 1126)">
   <path d="M 54.9316 0 L 57.666 0 L 30.5664 -70.459 L 28.0762 -70.459 L 0.976562 0 L 3.66211 0 L 12.9395 -24.4629 L 45.7031 -24.4629 Z M 29.1992 -67.0898 L 29.4434 -67.0898 L 44.8242 -26.709 L 13.8184 -26.709 Z"/>
  </g>
  <line id="Baseline-M" style="fill:none;stroke:#27AAE1;opacity:1;stroke-width:0.577;" x1="263" x2="3036" y1="1126" y2="1126"/>
  <line id="Capline-M" style="fill:none;stroke:#27AAE1;opacity:1;stroke-width:0.577;" x1="263" x2="3036" y1="1055.54" y2="1055.54"/>
  <g id="H-reference" style="fill:#27AAE1;stroke:none;" transform="matrix(1 0 0 1 339 1556)">
   <path d="M 54.9316 0 L 57.666 0 L 30.5664 -70.459 L 28.0762 -70.459 L 0.976562 0 L 3.66211 0 L 12.9395 -24.4629 L 45.7031 -24.4629 Z M 29.1992 -67.0898 L 29.4434 -67.0898 L 44.8242 -26.709 L 13.8184 -26.709 Z"/>
  </g>
  <line id="Baseline-L" style="fill:none;stroke:#27AAE1;opacity:1;stroke-width:0.577;" x1="263" x2="3036" y1="1556" y2="1556"/>
  <line id="Capline-L" style="fill:none;stroke:#27AAE1;opacity:1;stroke-width:0.577;" x1="263" x2="3036" y1="1485.54" y2="1485.54"/>
  <rect height="119.336" id="left-margin" style="fill:#00AEEF;stroke:none;opacity:0.4;" width="10.498" x="1373.16" y="1030.79"/>
  <rect height="119.336" id="right-margin" style="fill:#00AEEF;stroke:none;opacity:0.4;" width="10.498" x="1516.03" y="1030.79"/>
 </g>
 <g id="Symbols">
  <g id="Black-L" transform="matrix(1 0 0 1 2832.15 1556)">
   <path d="M 152.783 23.9258 C 155.029 26.2207 158.691 26.2695 160.889 23.9258 C 163.135 21.6309 163.135 18.0664 160.889 15.8203 L 49.8047 -95.166 C 47.5586 -97.4121 43.8477 -97.4121 41.6016 -95.166 C 39.4531 -93.0176 39.4531 -89.209 41.6016 -87.0605 Z M 159.424 1.46484 C 177.539 -11.4258 188.086 -27.9297 188.086 -35.1074 C 188.086 -47.9004 154.639 -90.5273 101.221 -90.5273 C 90.6738 -90.5273 80.8594 -88.8184 71.9238 -85.9863 L 91.8945 -66.0156 C 94.9219 -66.8945 98.0469 -67.3828 101.318 -67.3828 C 119.238 -67.3828 133.838 -53.0273 133.838 -35.0586 C 133.838 -31.7871 133.35 -28.6133 132.373 -25.5859 Z M 101.221 20.3125 C 112.207 20.3125 122.363 18.5059 131.543 15.5273 L 111.475 -4.54102 C 108.301 -3.41797 104.834 -2.7832 101.318 -2.7832 C 83.3496 -2.7832 68.7012 -17.627 68.7012 -35.0586 C 68.7012 -38.7207 69.3359 -42.2363 70.5078 -45.5078 L 43.9941 -71.9727 C 25.293 -58.9844 14.4043 -42.334 14.4043 -35.1074 C 14.4043 -22.3145 48.6816 20.3125 101.221 20.3125 Z M 122.314 -36.4746 C 122.314 -47.6562 113.232 -56.7383 102.002 -56.7383 C 101.709 -56.7383 101.465 -56.7383 101.221 -56.7383 L 122.266 -35.6445 C 122.314 -35.9375 122.314 -36.1816 122.314 -36.4746 Z M 79.8828 -35.0586 C 79.8828 -23.877 89.0625 -14.7461 100.244 -14.7461 C 100.537 -14.7461 100.781 -14.7949 101.123 -14.7949 L 79.9316 -35.9863 C 79.9316 -35.6445 79.8828 -35.3516 79.8828 -35.0586 Z"/>
  </g>
  <g id="Heavy-L" transform="matrix(1 0 0 1 2536.2 1556)">
   <path d="M 151.611 22.9004 C 153.711 25 157.08 25.0488 159.18 22.9004 C 161.328 20.7031 161.279 17.3828 159.18 15.2832 L 49.2676 -94.5801 C 47.168 -96.6797 43.7012 -96.6797 41.6016 -94.5801 C 39.5508 -92.5293 39.5508 -89.0137 41.6016 -86.9629 Z M 157.52 1.51367 C 175.83 -11.2793 186.816 -27.8809 186.816 -35.1562 C 186.816 -47.9004 152.979 -90.0391 100.439 -90.0391 C 89.7949 -90.0391 79.834 -88.2812 70.752 -85.3027 L 89.8926 -66.2109 C 93.2129 -67.3828 96.8262 -68.0664 100.537 -68.0664 C 118.799 -68.0664 133.691 -53.418 133.691 -35.1074 C 133.691 -31.3477 133.008 -27.7344 131.738 -24.4141 Z M 100.439 19.8242 C 111.67 19.8242 122.07 17.8711 131.348 14.6973 L 112.109 -4.54102 C 108.594 -3.02734 104.639 -2.19727 100.537 -2.19727 C 82.2266 -2.19727 67.3828 -17.2852 67.334 -35.1074 C 67.334 -39.3066 68.1641 -43.3105 69.6777 -46.9727 L 44.4824 -72.2168 C 25.4395 -59.2773 14.1602 -42.4316 14.1602 -35.1562 C 14.1602 -22.3633 48.7305 19.8242 100.439 19.8242 Z M 120.898 -36.4258 C 120.898 -47.3145 112.061 -56.2012 101.074 -56.2012 C 100.684 -56.2012 100.293 -56.2012 99.9512 -56.1523 L 120.85 -35.2539 C 120.898 -35.6445 120.898 -35.9863 120.898 -36.4258 Z M 79.834 -35.3516 C 79.834 -24.4141 88.8184 -15.5273 99.707 -15.5273 C 100.146 -15.5273 100.537 -15.5762 100.977 -15.625 L 79.9316 -36.6699 C 79.8828 -36.2305 79.834 -35.791 79.834 -35.3516 Z"/>
  </g>
  <g id="Bold-L" transform="matrix(1 0 0 1 2240.34 1556)">
   <path d="M 150.293 21.6797 C 152.197 23.6328 155.322 23.6816 157.275 21.6797 C 159.277 19.6289 159.229 16.6016 157.275 14.6973 L 48.6328 -93.8965 C 46.7285 -95.8008 43.5547 -95.8496 41.6016 -93.8965 C 39.6973 -91.9922 39.6973 -88.7695 41.6016 -86.8652 Z M 155.371 1.5625 C 173.926 -11.0352 185.352 -27.832 185.352 -35.1562 C 185.352 -47.9004 151.172 -89.502 99.6094 -89.502 C 88.7695 -89.502 78.6621 -87.6465 69.4824 -84.5703 L 87.6465 -66.4062 C 91.3574 -67.9199 95.4102 -68.7988 99.707 -68.7988 C 118.311 -68.7988 133.496 -53.9062 133.496 -35.1074 C 133.496 -30.8594 132.617 -26.8066 131.006 -23.0957 Z M 99.6094 19.2383 C 111.084 19.2383 121.68 17.1875 131.104 13.7695 L 112.842 -4.44336 C 108.887 -2.58789 104.395 -1.51367 99.707 -1.51367 C 80.9082 -1.51367 65.8691 -16.8945 65.8203 -35.1074 C 65.8203 -39.9414 66.8457 -44.4824 68.75 -48.584 L 45.0195 -72.4121 C 25.5859 -59.668 13.916 -42.5293 13.916 -35.1562 C 13.916 -22.4609 48.7305 19.2383 99.6094 19.2383 Z M 119.336 -36.3281 C 119.336 -46.9727 110.742 -55.6152 100.049 -55.6152 C 99.5117 -55.6152 99.0234 -55.5664 98.4863 -55.5176 L 119.238 -34.8145 C 119.287 -35.3027 119.336 -35.791 119.336 -36.3281 Z M 79.7852 -35.6934 C 79.7852 -25.0488 88.5254 -16.4062 99.1699 -16.4062 C 99.7559 -16.4062 100.244 -16.4551 100.83 -16.5039 L 79.8828 -37.4023 C 79.834 -36.8652 79.7852 -36.2793 79.7852 -35.6934 Z"/>
  </g>
  <g id="Semibold-L" transform="matrix(1 0 0 1 1944.22 1556)">
   <path d="M 149.365 20.8496 C 151.172 22.7051 154.102 22.7539 155.957 20.8496 C 157.861 18.8965 157.812 16.1133 155.957 14.2578 L 48.2422 -93.4082 C 46.4355 -95.2148 43.4082 -95.2637 41.5527 -93.4082 C 39.7949 -91.6504 39.7949 -88.5742 41.5527 -86.8164 Z M 153.857 1.61133 C 172.656 -10.9375 184.375 -27.7832 184.375 -35.1562 C 184.375 -47.8516 149.902 -89.1113 99.0723 -89.1113 C 88.0859 -89.1113 77.8809 -87.2559 68.6035 -84.0332 L 86.084 -66.5527 C 90.0879 -68.3105 94.4336 -69.2871 99.0723 -69.2871 C 117.969 -69.2871 133.35 -54.1992 133.35 -35.1562 C 133.35 -30.5664 132.324 -26.123 130.469 -22.2168 Z M 99.0723 18.7988 C 110.693 18.7988 121.436 16.6992 130.957 13.1348 L 113.379 -4.44336 C 109.082 -2.24609 104.199 -1.02539 99.0723 -1.02539 C 80.0293 -1.02539 64.8438 -16.6016 64.7461 -35.1562 C 64.7461 -40.3809 65.9668 -45.3125 68.1152 -49.6582 L 45.4102 -72.6074 C 25.6836 -59.9121 13.7207 -42.627 13.7207 -35.1562 C 13.7207 -22.5098 48.7305 18.7988 99.0723 18.7988 Z M 118.262 -36.3281 C 118.262 -46.7773 109.863 -55.1758 99.3164 -55.1758 C 98.7305 -55.1758 98.0957 -55.1758 97.5098 -55.0781 L 118.164 -34.4727 C 118.213 -35.0586 118.262 -35.6445 118.262 -36.3281 Z M 79.7363 -35.8887 C 79.7363 -25.4395 88.3301 -16.9922 98.7793 -16.9922 C 99.4141 -16.9922 100.049 -17.041 100.684 -17.0898 L 79.8828 -37.9395 C 79.834 -37.2559 79.7363 -36.5723 79.7363 -35.8887 Z"/>
  </g>
  <g id="Medium-L" transform="matrix(1 0 0 1 1647.95 1556)">
   <path d="M 148.682 20.2637 C 150.391 21.9727 153.174 22.0703 154.98 20.2637 C 156.787 18.3594 156.689 15.6738 154.98 13.9648 L 47.9004 -93.0664 C 46.1914 -94.7754 43.3105 -94.8242 41.5527 -93.0664 C 39.8926 -91.3574 39.8926 -88.4277 41.5527 -86.7676 Z M 152.783 1.61133 C 171.631 -10.791 183.594 -27.7344 183.594 -35.1562 C 183.594 -47.8516 148.926 -88.8672 98.6328 -88.8672 C 87.5488 -88.8672 77.2949 -86.9141 67.9199 -83.6426 L 84.9609 -66.6504 C 89.1113 -68.5547 93.7012 -69.6777 98.6328 -69.6777 C 117.725 -69.6777 133.252 -54.4434 133.252 -35.1562 C 133.252 -30.3223 132.129 -25.6348 130.078 -21.5332 Z M 98.6328 18.5059 C 110.4 18.5059 121.24 16.3086 130.859 12.6465 L 113.77 -4.39453 C 109.229 -2.05078 104.053 -0.683594 98.6328 -0.683594 C 79.3945 -0.683594 64.0625 -16.4062 63.9648 -35.1562 C 63.9648 -40.7227 65.2832 -45.9473 67.627 -50.5371 L 45.6543 -72.7051 C 25.7812 -60.1074 13.623 -42.6758 13.623 -35.1562 C 13.623 -22.5098 48.7305 18.5059 98.6328 18.5059 Z M 117.432 -36.2793 C 117.432 -46.582 109.18 -54.8828 98.7793 -54.8828 C 98.0957 -54.8828 97.4121 -54.834 96.7773 -54.7852 L 117.334 -34.2285 C 117.383 -34.8633 117.432 -35.5469 117.432 -36.2793 Z M 79.7363 -36.084 C 79.7363 -25.7812 88.1836 -17.4805 98.4863 -17.4805 C 99.2188 -17.4805 99.9023 -17.4805 100.635 -17.5781 L 79.8828 -38.3301 C 79.7852 -37.5977 79.7363 -36.8164 79.7363 -36.084 Z"/>
  </g>
  <g id="Regular-L" transform="matrix(1 0 0 1 1351.82 1556)">
   <path d="M 147.754 19.4336 C 149.414 21.0449 151.953 21.1426 153.662 19.4336 C 155.42 17.627 155.273 15.1855 153.662 13.5254 L 47.5098 -92.5781 C 45.8984 -94.1895 43.2129 -94.2383 41.5527 -92.5781 C 39.9902 -91.0156 39.9902 -88.2812 41.5527 -86.6699 Z M 151.318 1.66016 C 170.361 -10.6934 182.617 -27.6855 182.617 -35.2051 C 182.617 -47.8516 147.656 -88.4766 98.0469 -88.4766 C 86.9141 -88.4766 76.4648 -86.4746 67.041 -83.1055 L 83.3984 -66.7969 C 87.793 -68.9453 92.7734 -70.166 98.0469 -70.166 C 117.432 -70.166 133.105 -54.7363 133.105 -35.2051 C 133.105 -29.9805 131.885 -25 129.59 -20.6543 Z M 98.0469 18.1152 C 109.961 18.1152 120.996 15.8203 130.713 12.0605 L 114.258 -4.39453 C 109.424 -1.70898 103.906 -0.244141 98.0469 -0.244141 C 78.5156 -0.244141 63.0371 -16.1621 62.9395 -35.2051 C 62.8906 -41.1621 64.4043 -46.7773 67.041 -51.6113 L 46.0449 -72.8516 C 25.8789 -60.3516 13.4277 -42.7246 13.4277 -35.2051 C 13.4277 -22.5586 48.7793 18.1152 98.0469 18.1152 Z M 116.406 -36.2305 C 116.406 -46.3379 108.252 -54.4922 98.0957 -54.4922 C 97.3145 -54.4922 96.5332 -54.4434 95.8008 -54.3457 L 116.211 -33.9355 C 116.309 -34.668 116.406 -35.4492 116.406 -36.2305 Z M 79.6875 -36.2793 C 79.6875 -26.1719 88.0371 -18.0664 98.0957 -18.0664 C 98.9258 -18.0664 99.707 -18.1152 100.488 -18.1641 L 79.834 -38.8184 C 79.7852 -38.0371 79.6875 -37.1582 79.6875 -36.2793 Z"/>
  </g>
  <g id="Light-L" transform="matrix(1 0 0 1 1056.4 1556)">
   <path d="M 147.461 19.4824 C 148.73 20.752 150.732 20.8008 152.051 19.4824 C 153.418 18.0664 153.32 16.2109 152.051 14.9414 L 44.7754 -92.334 C 43.5547 -93.5547 41.5039 -93.6523 40.1855 -92.334 C 38.9648 -91.0645 38.9648 -89.0137 40.1855 -87.7441 Z M 147.705 2.34375 C 167.676 -10.2539 180.225 -27.6367 180.225 -35.2051 C 180.225 -47.7051 145.312 -88.1348 96.7285 -88.1348 C 84.9609 -88.1348 74.0723 -85.8398 64.209 -82.0801 L 80.5664 -65.8203 C 85.3516 -68.457 90.8691 -69.9707 96.7285 -69.9707 C 115.918 -69.9707 131.641 -54.5898 131.641 -35.2051 C 131.641 -29.3945 130.078 -23.8281 127.295 -19.0918 Z M 96.7285 17.7734 C 109.033 17.7734 120.361 15.2832 130.273 11.1816 L 113.916 -5.12695 C 108.838 -2.14844 102.979 -0.439453 96.7285 -0.439453 C 77.3438 -0.439453 61.9629 -16.2598 61.8164 -35.2051 C 61.7676 -41.5527 63.4766 -47.5098 66.5039 -52.5391 L 46.2891 -73.1934 C 25.7812 -60.5957 13.2324 -42.7246 13.2324 -35.2051 C 13.2324 -22.7051 48.2422 17.7734 96.7285 17.7734 Z M 112.744 -35.8398 C 112.744 -44.6777 105.664 -51.6602 96.7773 -51.6602 C 96.0938 -51.6602 95.3613 -51.6602 94.7266 -51.5625 L 112.598 -33.6914 C 112.646 -34.375 112.744 -35.1074 112.744 -35.8398 Z M 80.7617 -35.8398 C 80.7617 -27.002 87.9883 -20.0195 96.7773 -20.0195 C 97.5098 -20.0195 98.2422 -20.0195 98.9258 -20.1172 L 80.957 -38.1348 C 80.8594 -37.4023 80.7617 -36.6211 80.7617 -35.8398 Z"/>
  </g>
  <g id="Thin-L" transform="matrix(1 0 0 1 761.403 1556)">
   <path d="M 147.119 19.5801 C 147.852 20.3125 149.121 20.3613 149.902 19.5801 C 150.781 18.7012 150.684 17.5293 149.902 16.748 L 41.1621 -91.9922 C 40.4785 -92.6758 39.209 -92.8223 38.3301 -91.9922 C 37.5977 -91.2109 37.5977 -89.9414 38.3301 -89.1602 Z M 142.969 3.27148 C 164.111 -9.66797 177.1 -27.6367 177.1 -35.2051 C 177.1 -47.4609 142.188 -87.6465 95.0195 -87.6465 C 82.4707 -87.6465 70.8984 -85.0098 60.498 -80.6641 L 76.8066 -64.502 C 82.0801 -67.7734 88.3301 -69.6777 95.0195 -69.6777 C 113.916 -69.6777 129.688 -54.3945 129.688 -35.2051 C 129.688 -28.5645 127.686 -22.3145 124.268 -17.0898 Z M 95.0195 17.2852 C 107.764 17.2852 119.482 14.5508 129.688 10.0586 L 113.428 -6.15234 C 108.057 -2.73438 101.709 -0.683594 95.0195 -0.683594 C 75.8301 -0.683594 60.5957 -16.4062 60.3516 -35.2051 C 60.3027 -42.041 62.3047 -48.4375 65.8203 -53.7598 L 46.6309 -73.584 C 25.5859 -60.9375 12.9395 -42.7246 12.9395 -35.2051 C 12.9395 -22.9004 47.5586 17.2852 95.0195 17.2852 Z M 107.91 -35.3027 C 107.91 -42.5293 102.246 -47.998 95.1172 -47.998 C 94.5312 -47.998 93.8477 -47.998 93.2617 -47.9004 L 107.764 -33.3984 C 107.812 -33.9844 107.91 -34.668 107.91 -35.3027 Z M 82.2266 -35.2539 C 82.2266 -28.0762 87.8906 -22.6074 95.0195 -22.6074 C 95.6055 -22.6074 96.2891 -22.6074 96.875 -22.7051 L 82.373 -37.207 C 82.2754 -36.6211 82.2266 -35.9375 82.2266 -35.2539 Z"/>
  </g>
  <g id="Ultralight-L" transform="matrix(1 0 0 1 465.57 1556)">
   <path d="M 146.924 19.5801 C 147.412 20.1172 148.291 20.1172 148.828 19.5801 C 149.414 18.9941 149.316 18.2129 148.828 17.6758 L 39.3066 -91.7969 C 38.8672 -92.2363 38.0371 -92.4316 37.4023 -91.7969 C 36.9141 -91.2598 36.9141 -90.4297 37.4023 -89.8926 Z M 140.527 3.71094 C 162.305 -9.375 175.488 -27.6367 175.488 -35.2051 C 175.488 -47.3633 140.625 -87.4512 94.1406 -87.4512 C 81.1523 -87.4512 69.2383 -84.6191 58.5938 -79.9805 L 74.9023 -63.8184 C 80.4199 -67.4316 87.0117 -69.5312 94.1406 -69.5312 C 112.891 -69.5312 128.662 -54.2969 128.662 -35.2051 C 128.662 -28.1738 126.465 -21.5332 122.705 -16.0156 Z M 94.1406 17.041 C 107.129 17.041 119.043 14.1602 129.395 9.47266 L 113.184 -6.64062 C 107.617 -2.97852 101.074 -0.830078 94.1406 -0.830078 C 75.0488 -0.830078 59.8633 -16.5039 59.6191 -35.2051 C 59.5215 -42.334 61.7188 -48.9258 65.4297 -54.3945 L 46.7773 -73.8281 C 25.5371 -61.084 12.793 -42.7246 12.793 -35.2051 C 12.793 -22.998 47.168 17.041 94.1406 17.041 Z M 105.42 -35.0586 C 105.42 -41.4062 100.488 -46.0938 94.2383 -46.0938 C 93.7012 -46.0938 93.0664 -46.0938 92.5293 -46.0449 L 105.273 -33.252 C 105.371 -33.7891 105.42 -34.4238 105.42 -35.0586 Z M 82.959 -34.9609 C 82.959 -28.6133 87.8906 -23.9258 94.1406 -23.9258 C 94.6777 -23.9258 95.3125 -23.9258 95.8496 -24.0234 L 83.1055 -36.7188 C 83.0078 -36.1816 82.959 -35.5957 82.959 -34.9609 Z"/>
  </g>
  <g id="Black-M" transform="matrix(1 0 0 1 2854.57 1126)">
   <path d="M 119.873 12.1094 C 121.582 13.8672 124.463 13.8672 126.172 12.1094 C 127.832 10.3516 127.881 7.56836 126.172 5.81055 L 37.8906 -82.373 C 36.1816 -84.1309 33.3008 -84.1309 31.543 -82.373 C 29.8828 -80.7129 29.8828 -77.7832 31.543 -76.0742 Z M 124.219 -6.49414 C 138.428 -16.7969 146.289 -29.6387 146.289 -35.1562 C 146.289 -44.9707 120.801 -78.5645 78.7598 -78.5645 C 70.459 -78.5645 62.793 -77.1973 55.8105 -74.9512 L 72.4121 -58.3008 C 74.5117 -58.8867 76.6602 -59.1797 78.9062 -59.1797 C 92.1875 -59.1797 103.174 -48.4375 103.174 -35.0586 C 103.174 -32.7637 102.881 -30.6152 102.246 -28.5156 Z M 78.7598 8.34961 C 87.1582 8.34961 94.9219 6.98242 102.002 4.73633 L 85.3027 -11.9141 C 83.3008 -11.3281 81.1035 -11.0352 78.9062 -11.0352 C 65.5273 -11.0352 54.541 -22.0703 54.541 -35.0586 C 54.541 -37.4023 54.834 -39.5996 55.4688 -41.748 L 33.5449 -63.623 C 19.3848 -53.3203 11.377 -40.625 11.377 -35.1562 C 11.377 -25.2441 37.4512 8.34961 78.7598 8.34961 Z M 94.7266 -36.084 C 94.7266 -44.3848 87.9883 -51.1719 79.6387 -51.1719 C 79.5898 -51.1719 79.6387 -51.1719 79.5898 -51.1719 L 94.7266 -35.9863 C 94.7266 -36.0352 94.7266 -36.0352 94.7266 -36.084 Z M 62.5977 -34.4727 C 62.5977 -26.123 69.3359 -19.3848 77.6855 -19.3848 C 77.7344 -19.3848 77.6855 -19.3848 77.7344 -19.3848 L 62.5977 -34.5215 C 62.5977 -34.4727 62.5977 -34.5215 62.5977 -34.4727 Z"/>
  </g>
  <g id="Heavy-M" transform="matrix(1 0 0 1 2558.37 1126)">
   <path d="M 118.652 10.9375 C 120.312 12.5977 123.047 12.6465 124.707 10.9375 C 126.367 9.22852 126.367 6.54297 124.707 4.83398 L 37.9883 -81.7871 C 36.3281 -83.4473 33.5938 -83.4473 31.8848 -81.7871 C 30.2734 -80.127 30.2734 -77.3438 31.8848 -75.6836 Z M 123.047 -6.64062 C 137.305 -16.748 145.459 -29.5898 145.459 -35.1562 C 145.459 -45.0195 119.629 -78.125 78.2715 -78.125 C 69.9707 -78.125 62.2559 -76.7578 55.2734 -74.4629 L 70.9473 -58.7891 C 73.291 -59.5215 75.7812 -59.9609 78.3691 -59.9609 C 92.0898 -59.9609 103.369 -48.877 103.369 -35.1074 C 103.369 -32.4707 102.93 -29.9805 102.148 -27.6367 Z M 78.2715 7.86133 C 86.8164 7.86133 94.7266 6.44531 101.855 4.05273 L 86.1328 -11.6699 C 83.7402 -10.791 81.0547 -10.3027 78.3691 -10.3027 C 64.5996 -10.3027 53.3203 -21.6797 53.3203 -35.1074 C 53.3203 -37.9395 53.7598 -40.5762 54.7363 -43.0664 L 34.0332 -63.7695 C 19.5312 -53.6133 11.1816 -40.7227 11.1816 -35.1562 C 11.1816 -25.2441 37.5977 7.86133 78.2715 7.86133 Z M 94.1406 -36.084 C 94.1406 -44.4824 87.3535 -51.2695 78.9551 -51.2695 C 78.7598 -51.2695 78.6133 -51.2695 78.4668 -51.2695 L 94.1406 -35.5957 C 94.1406 -35.791 94.1406 -35.8887 94.1406 -36.084 Z M 62.2559 -34.9121 C 62.2559 -26.5137 69.0918 -19.7266 77.4414 -19.7266 C 77.6367 -19.7266 77.7832 -19.7266 77.9785 -19.7266 L 62.2559 -35.4492 C 62.2559 -35.2539 62.2559 -35.1074 62.2559 -34.9121 Z"/>
  </g>
  <g id="Bold-M" transform="matrix(1 0 0 1 2262.22 1126)">
   <path d="M 117.236 9.61914 C 118.848 11.2305 121.484 11.2793 123.047 9.61914 C 124.707 7.91016 124.658 5.41992 123.047 3.80859 L 38.1348 -81.1035 C 36.5234 -82.7148 33.8867 -82.7148 32.2754 -81.1035 C 30.7129 -79.541 30.7129 -76.8555 32.2754 -75.293 Z M 121.729 -6.78711 C 135.986 -16.6504 144.58 -29.541 144.58 -35.1562 C 144.58 -45.0684 118.262 -77.6367 77.7344 -77.6367 C 69.4336 -77.6367 61.7188 -76.2207 54.6875 -73.9258 L 69.3359 -59.2773 C 71.9727 -60.2539 74.8047 -60.791 77.7832 -60.791 C 91.9922 -60.791 103.564 -49.4141 103.564 -35.1562 C 103.564 -32.1289 103.027 -29.2969 102.002 -26.6602 Z M 77.7344 7.32422 C 86.4746 7.32422 94.5312 5.81055 101.758 3.32031 L 87.0117 -11.4258 C 84.2285 -10.1562 81.0547 -9.52148 77.7832 -9.52148 C 63.5254 -9.52148 51.9531 -21.2402 51.9531 -35.1562 C 51.9531 -38.4766 52.5879 -41.6992 53.8574 -44.5801 L 34.5215 -63.916 C 19.7266 -53.9551 10.9375 -40.8203 10.9375 -35.1562 C 10.9375 -25.293 37.7441 7.32422 77.7344 7.32422 Z M 93.5059 -36.1328 C 93.5059 -44.5801 86.6699 -51.4648 78.1738 -51.4648 C 77.832 -51.4648 77.5391 -51.416 77.1973 -51.3672 L 93.457 -35.1562 C 93.457 -35.498 93.5059 -35.791 93.5059 -36.1328 Z M 61.8652 -35.4004 C 61.8652 -26.9531 68.7988 -20.0684 77.1973 -20.0684 C 77.5879 -20.0684 77.8809 -20.1172 78.2715 -20.1172 L 61.9141 -36.4746 C 61.8652 -36.1328 61.8652 -35.7422 61.8652 -35.4004 Z"/>
  </g>
  <g id="Semibold-M" transform="matrix(1 0 0 1 1965.9 1126)">
   <path d="M 116.309 8.69141 C 117.871 10.2539 120.361 10.3027 121.924 8.69141 C 123.535 7.03125 123.486 4.63867 121.924 3.07617 L 38.1836 -80.6152 C 36.6211 -82.1777 34.082 -82.1777 32.5195 -80.6152 C 31.0059 -79.1016 31.0059 -76.5137 32.5195 -75 Z M 120.85 -6.83594 C 135.107 -16.5527 143.945 -29.4922 143.945 -35.1562 C 143.945 -45.0684 117.383 -77.2949 77.3438 -77.2949 C 69.043 -77.2949 61.3281 -75.9277 54.248 -73.584 L 68.2129 -59.668 C 71.0449 -60.7422 74.1211 -61.377 77.3926 -61.377 C 91.9434 -61.377 103.711 -49.8047 103.711 -35.1562 C 103.711 -31.9336 103.076 -28.8086 101.904 -25.9766 Z M 77.3438 6.93359 C 86.1816 6.93359 94.3848 5.41992 101.66 2.7832 L 87.6465 -11.2305 C 84.5215 -9.76562 81.0547 -8.93555 77.3926 -8.93555 C 62.7441 -8.93555 51.0254 -20.9473 51.0254 -35.1562 C 50.9766 -38.916 51.8066 -42.4316 53.2715 -45.6055 L 34.9121 -64.0137 C 19.873 -54.1504 10.791 -40.918 10.791 -35.1562 C 10.791 -25.293 37.8906 6.93359 77.3438 6.93359 Z M 93.0176 -36.1816 C 93.0176 -44.6289 86.1816 -51.5625 77.6367 -51.5625 C 77.1973 -51.5625 76.7578 -51.5137 76.3672 -51.4648 L 92.9688 -34.8633 C 93.0176 -35.3027 93.0176 -35.6934 93.0176 -36.1816 Z M 61.5723 -35.7422 C 61.5723 -27.2461 68.5547 -20.3613 77.0508 -20.3613 C 77.5391 -20.3613 77.9785 -20.3613 78.418 -20.4102 L 61.6699 -37.207 C 61.6211 -36.7188 61.5723 -36.2305 61.5723 -35.7422 Z"/>
  </g>
  <g id="Medium-M" transform="matrix(1 0 0 1 1669.5 1126)">
   <path d="M 115.576 8.00781 C 117.09 9.52148 119.531 9.61914 121.094 8.00781 C 122.705 6.34766 122.607 4.00391 121.094 2.49023 L 38.2324 -80.2734 C 36.7188 -81.7871 34.2285 -81.8359 32.7148 -80.2734 C 31.25 -78.8086 31.25 -76.2695 32.7148 -74.8047 Z M 120.166 -6.93359 C 134.424 -16.5039 143.457 -29.4434 143.457 -35.2051 C 143.457 -45.0684 116.65 -77.0508 77.0508 -77.0508 C 68.75 -77.0508 60.9863 -75.6348 53.9551 -73.291 L 67.334 -59.9121 C 70.3613 -61.1328 73.6328 -61.8164 77.0996 -61.8164 C 91.8945 -61.8164 103.857 -50.0488 103.857 -35.1562 C 103.857 -31.7383 103.125 -28.418 101.807 -25.4395 Z M 77.0508 6.68945 C 85.9863 6.68945 94.2871 5.07812 101.611 2.39258 L 88.1348 -11.084 C 84.8145 -9.42383 81.0547 -8.54492 77.0996 -8.54492 C 62.207 -8.54492 50.3418 -20.7031 50.293 -35.1562 C 50.293 -39.209 51.1719 -43.0176 52.7832 -46.3867 L 35.1562 -64.1113 C 19.9707 -54.3457 10.6445 -40.9668 10.6445 -35.2051 C 10.6445 -25.293 37.9395 6.68945 77.0508 6.68945 Z M 92.6758 -36.1816 C 92.6758 -44.7266 85.8398 -51.6113 77.2461 -51.6113 C 76.709 -51.6113 76.1719 -51.5625 75.6836 -51.5137 L 92.5781 -34.668 C 92.627 -35.1074 92.6758 -35.6445 92.6758 -36.1816 Z M 61.377 -35.9863 C 61.377 -27.4414 68.4082 -20.5566 76.9043 -20.5566 C 77.4902 -20.5566 78.0273 -20.6055 78.5645 -20.6543 L 61.4746 -37.7441 C 61.4258 -37.1582 61.377 -36.5723 61.377 -35.9863 Z"/>
  </g>
  <g id="Regular-M" transform="matrix(1 0 0 1 1373.16 1126)">
   <path d="M 114.648 7.08008 C 116.113 8.59375 118.457 8.69141 119.971 7.08008 C 121.533 5.46875 121.436 3.27148 119.971 1.75781 L 38.3301 -79.834 C 36.8652 -81.2988 34.4238 -81.2988 32.959 -79.834 C 31.543 -78.418 31.543 -75.9277 32.959 -74.5117 Z M 119.287 -7.03125 C 133.545 -16.4551 142.871 -29.3945 142.871 -35.2051 C 142.871 -45.1172 115.771 -76.709 76.709 -76.709 C 68.4082 -76.709 60.5957 -75.293 53.5156 -72.9492 L 66.2109 -60.2539 C 69.4336 -61.6211 72.9492 -62.4023 76.709 -62.4023 C 91.7969 -62.4023 104.004 -50.4395 104.004 -35.2051 C 104.004 -31.4941 103.174 -27.9297 101.709 -24.8047 Z M 76.709 6.29883 C 85.7422 6.29883 94.1406 4.63867 101.514 1.9043 L 88.7207 -10.8887 C 85.1074 -9.0332 81.0059 -8.00781 76.709 -8.00781 C 61.4746 -8.00781 49.4141 -20.3613 49.3652 -35.2051 C 49.3652 -39.5996 50.3906 -43.75 52.1973 -47.4121 L 35.498 -64.209 C 20.1172 -54.5898 10.498 -41.0645 10.498 -35.2051 C 10.498 -25.3418 38.0859 6.29883 76.709 6.29883 Z M 92.2363 -36.2305 C 92.2363 -44.7754 85.3516 -51.709 76.709 -51.709 C 76.0742 -51.709 75.4395 -51.6602 74.8535 -51.6113 L 92.1387 -34.3262 C 92.1875 -34.9121 92.2363 -35.5957 92.2363 -36.2305 Z M 61.1328 -36.3281 C 61.1328 -27.7344 68.2129 -20.8008 76.7578 -20.8008 C 77.4414 -20.8008 78.0762 -20.8496 78.7598 -20.8984 L 61.2305 -38.4277 C 61.1816 -37.7441 61.1328 -37.0117 61.1328 -36.3281 Z"/>
  </g>
  <g id="Light-M" transform="matrix(1 0 0 1 1077.62 1126)">
   <path d="M 114.404 7.12891 C 115.527 8.30078 117.334 8.34961 118.506 7.12891 C 119.775 5.85938 119.678 4.15039 118.506 3.02734 L 35.8887 -79.5898 C 34.7656 -80.7129 32.9102 -80.7617 31.7383 -79.5898 C 30.6152 -78.4668 30.6152 -76.5625 31.7383 -75.4395 Z M 116.064 -6.39648 C 131.104 -16.0645 140.723 -29.3945 140.723 -35.2051 C 140.723 -44.9707 113.672 -76.3672 75.5371 -76.3672 C 66.6992 -76.3672 58.4473 -74.7559 51.0254 -72.0215 L 63.6719 -59.375 C 67.2363 -61.1816 71.2402 -62.207 75.5371 -62.207 C 90.4785 -62.207 102.637 -50.293 102.637 -35.2051 C 102.637 -30.957 101.611 -26.9043 99.6582 -23.4375 Z M 75.5371 6.00586 C 84.9121 6.00586 93.5547 4.15039 101.123 1.12305 L 88.4277 -11.5723 C 84.6191 -9.42383 80.1758 -8.1543 75.5371 -8.1543 C 60.4492 -8.1543 48.4863 -20.5078 48.3887 -35.2051 C 48.3398 -39.9414 49.6094 -44.4336 51.7578 -48.2422 L 35.7422 -64.502 C 20.0195 -54.7852 10.3027 -41.0645 10.3027 -35.2051 C 10.3027 -25.4883 37.5977 6.00586 75.5371 6.00586 Z M 88.9648 -35.8887 C 88.9648 -43.3105 83.0078 -49.2188 75.5859 -49.2188 C 75 -49.2188 74.4141 -49.1699 73.877 -49.1211 L 88.8672 -34.1309 C 88.916 -34.668 88.9648 -35.3027 88.9648 -35.8887 Z M 62.1094 -35.8887 C 62.1094 -28.4668 68.1641 -22.5586 75.5859 -22.5586 C 76.1719 -22.5586 76.7578 -22.6074 77.3438 -22.6562 L 62.207 -37.793 C 62.1582 -37.207 62.1094 -36.5234 62.1094 -35.8887 Z"/>
  </g>
  <g id="Thin-M" transform="matrix(1 0 0 1 782.423 1126)">
   <path d="M 114.062 7.22656 C 114.795 7.91016 115.918 7.95898 116.602 7.22656 C 117.383 6.44531 117.334 5.37109 116.602 4.6875 L 32.666 -79.2969 C 32.0312 -79.9316 30.8594 -80.0293 30.127 -79.2969 C 29.3945 -78.5645 29.3945 -77.4414 30.127 -76.709 Z M 111.816 -5.61523 C 127.93 -15.5762 137.939 -29.3457 137.939 -35.2051 C 137.939 -44.7754 110.889 -75.9766 74.0234 -75.9766 C 64.4531 -75.9766 55.6152 -74.0234 47.6562 -70.752 L 60.3516 -58.2031 C 64.3066 -60.5957 68.9941 -61.9629 74.0234 -61.9629 C 88.7207 -61.9629 100.928 -50.0977 100.928 -35.2051 C 100.928 -30.2246 99.4629 -25.5371 96.9238 -21.582 Z M 74.0234 5.56641 C 83.7891 5.56641 92.7734 3.51562 100.635 0.0976562 L 87.9883 -12.4512 C 83.8867 -9.91211 79.1016 -8.39844 74.0234 -8.39844 C 59.082 -8.39844 47.2656 -20.6055 47.0703 -35.2051 C 47.0215 -40.3809 48.5352 -45.2637 51.123 -49.3164 L 36.0352 -64.8926 C 19.873 -55.0781 10.0586 -41.0645 10.0586 -35.2051 C 10.0586 -25.6348 37.0117 5.56641 74.0234 5.56641 Z M 84.668 -35.4004 C 84.668 -41.3574 79.9805 -45.8984 74.0723 -45.8984 C 73.584 -45.8984 73.0469 -45.8984 72.6074 -45.8496 L 84.5215 -33.8867 C 84.6191 -34.375 84.668 -34.8633 84.668 -35.4004 Z M 63.3789 -35.4004 C 63.3789 -29.4434 68.1152 -24.9023 74.0234 -24.9023 C 74.5117 -24.9023 75.0488 -24.9023 75.5371 -24.9512 L 63.5254 -36.9629 C 63.4277 -36.4746 63.3789 -35.9375 63.3789 -35.4004 Z"/>
  </g>
  <g id="Ultralight-M" transform="matrix(1 0 0 1 486.493 1126)">
   <path d="M 113.916 7.22656 C 114.404 7.71484 115.186 7.71484 115.625 7.22656 C 116.211 6.68945 116.113 6.00586 115.625 5.51758 L 31.0059 -79.1016 C 30.6152 -79.541 29.834 -79.6875 29.2969 -79.1016 C 28.8086 -78.6621 28.8086 -77.8809 29.2969 -77.3926 Z M 109.619 -5.17578 C 126.318 -15.2832 136.475 -29.3457 136.475 -35.2051 C 136.475 -44.6777 109.424 -75.7324 73.2422 -75.7324 C 63.2812 -75.7324 54.1504 -73.6328 45.9961 -70.1172 L 58.6426 -57.5684 C 62.793 -60.3027 67.8223 -61.8652 73.2422 -61.8652 C 87.793 -61.8652 100 -50 100 -35.2051 C 100 -29.8828 98.3887 -24.8535 95.5566 -20.6543 Z M 73.2422 5.37109 C 83.2031 5.37109 92.3828 3.17383 100.391 -0.390625 L 87.793 -12.9395 C 83.5449 -10.1562 78.5156 -8.54492 73.2422 -8.54492 C 58.3984 -8.54492 46.6309 -20.7031 46.4355 -35.2051 C 46.3867 -40.625 47.998 -45.7031 50.8301 -49.9023 L 36.2305 -65.0879 C 19.8242 -55.2246 9.96094 -41.0645 9.96094 -35.2051 C 9.96094 -25.7324 36.6699 5.37109 73.2422 5.37109 Z M 82.4707 -35.1562 C 82.4707 -40.332 78.3691 -44.2383 73.291 -44.2383 C 72.8516 -44.2383 72.3633 -44.2383 71.9238 -44.1406 L 82.3242 -33.7402 C 82.373 -34.1797 82.4707 -34.668 82.4707 -35.1562 Z M 64.0625 -35.1074 C 64.0625 -29.9316 68.1152 -26.0742 73.2422 -26.0742 C 73.6328 -26.0742 74.1699 -26.0742 74.5605 -26.123 L 64.1602 -36.5234 C 64.1113 -36.084 64.0625 -35.5957 64.0625 -35.1074 Z"/>
  </g>
  <g id="Black-S" transform="matrix(1 0 0 1 2871.63 696)">
   <path d="M 93.8477 1.75781 C 95.2148 3.125 97.4609 3.125 98.7793 1.75781 C 100.098 0.390625 100.146 -1.80664 98.7793 -3.17383 L 29.7852 -72.1191 C 28.418 -73.4863 26.1719 -73.4863 24.8047 -72.1191 C 23.4863 -70.8008 23.4863 -68.5059 24.8047 -67.1875 Z M 97.3145 -12.7441 C 108.447 -20.8008 114.6 -30.8594 114.6 -35.1562 C 114.6 -42.8711 94.6289 -69.1406 61.7188 -69.1406 C 55.2246 -69.1406 49.2188 -68.0664 43.75 -66.3086 L 56.6895 -53.3691 C 58.3496 -53.8086 60.0586 -54.0527 61.8164 -54.0527 C 72.2656 -54.0527 80.9082 -45.6055 80.9082 -35.1074 C 80.9082 -33.3008 80.6641 -31.5918 80.1758 -29.9316 Z M 61.7188 -1.12305 C 68.3105 -1.12305 74.4141 -2.19727 79.9316 -3.95508 L 66.9434 -16.9434 C 65.332 -16.4551 63.5742 -16.2109 61.8164 -16.2109 C 51.3184 -16.2109 42.6758 -24.9023 42.6758 -35.1074 C 42.6758 -36.9629 42.9199 -38.7207 43.457 -40.4297 L 26.3672 -57.4707 C 15.2344 -49.4141 8.93555 -39.4531 8.93555 -35.1562 C 8.93555 -27.3926 29.3945 -1.12305 61.7188 -1.12305 Z M 74.2676 -35.8887 C 74.2676 -42.4316 68.9453 -47.7539 62.4023 -47.7539 L 62.3047 -47.7539 L 74.2676 -35.791 Z M 49.0234 -34.668 C 49.0234 -28.125 54.3457 -22.8027 60.8887 -22.8027 L 60.9863 -22.8027 L 49.0234 -34.7656 Z"/>
  </g>
  <g id="Heavy-S" transform="matrix(1 0 0 1 2575.19 696)">
   <path d="M 92.9199 0.830078 C 94.2871 2.19727 96.4844 2.24609 97.8027 0.830078 C 99.1699 -0.537109 99.1699 -2.68555 97.8027 -4.05273 L 30.127 -71.6797 C 28.7598 -73.0469 26.5137 -73.0469 25.1953 -71.6797 C 23.877 -70.3613 23.877 -68.1152 25.1953 -66.7969 Z M 96.7773 -12.8906 C 107.812 -20.752 114.209 -30.8105 114.209 -35.1562 C 114.209 -42.9199 93.9453 -68.8477 61.4746 -68.8477 C 55.0293 -68.8477 49.0723 -67.7734 43.6035 -66.0645 L 55.8594 -53.8086 C 57.666 -54.3457 59.5703 -54.6387 61.5234 -54.6387 C 72.3145 -54.6387 81.2012 -45.9961 81.2012 -35.1074 C 81.2012 -33.1543 80.9082 -31.2012 80.2734 -29.3945 Z M 61.4746 -1.46484 C 68.1152 -1.46484 74.3164 -2.53906 79.8828 -4.39453 L 67.5781 -16.6992 C 65.7227 -16.0156 63.623 -15.625 61.5234 -15.625 C 50.6836 -15.625 41.8457 -24.5605 41.8457 -35.1074 C 41.8457 -37.3047 42.1875 -39.4043 42.9199 -41.3574 L 26.6602 -57.5684 C 15.3809 -49.6094 8.78906 -39.5508 8.78906 -35.1562 C 8.78906 -27.3926 29.541 -1.46484 61.4746 -1.46484 Z M 74.1699 -35.9375 C 74.1699 -42.6758 68.7012 -48.1445 61.9629 -48.1445 C 61.8164 -48.1445 61.7188 -48.1445 61.5723 -48.0957 L 74.1211 -35.498 C 74.1699 -35.6934 74.1699 -35.791 74.1699 -35.9375 Z M 48.6328 -35.0586 C 48.6328 -28.3203 54.1504 -22.8516 60.8398 -22.8516 C 61.0352 -22.8516 61.1328 -22.9004 61.3281 -22.9004 L 48.6816 -35.5469 C 48.6328 -35.3516 48.6328 -35.2051 48.6328 -35.0586 Z"/>
  </g>
  <g id="Bold-S" transform="matrix(1 0 0 1 2278.8 696)">
   <path d="M 91.8945 -0.146484 C 93.2129 1.17188 95.4102 1.2207 96.7285 -0.146484 C 98.0957 -1.5625 98.0469 -3.66211 96.7285 -5.0293 L 30.4688 -71.1914 C 29.1504 -72.5586 26.9531 -72.5586 25.5859 -71.1914 C 24.3164 -69.9219 24.3164 -67.6758 25.5859 -66.3574 Z M 96.1426 -13.0859 C 107.08 -20.752 113.77 -30.7617 113.77 -35.2051 C 113.77 -42.9688 93.1641 -68.5059 61.1816 -68.5059 C 54.834 -68.5059 48.877 -67.4805 43.457 -65.7715 L 54.8828 -54.3457 C 56.8848 -54.9805 59.0332 -55.3223 61.2305 -55.3223 C 72.4121 -55.3223 81.4941 -46.3867 81.4941 -35.1562 C 81.4941 -32.959 81.1523 -30.8105 80.4199 -28.8086 Z M 61.1816 -1.85547 C 67.9199 -1.85547 74.2188 -2.97852 79.834 -4.88281 L 68.3105 -16.4062 C 66.1133 -15.4785 63.7207 -14.9902 61.2305 -14.9902 C 50 -14.9902 40.918 -24.2188 40.918 -35.1562 C 40.918 -37.7441 41.4062 -40.1855 42.2852 -42.3828 L 27.0508 -57.6172 C 15.5273 -49.8535 8.64258 -39.6484 8.64258 -35.2051 C 8.64258 -27.3926 29.7363 -1.85547 61.1816 -1.85547 Z M 74.0723 -36.0352 C 74.0723 -42.9199 68.457 -48.584 61.5234 -48.584 C 61.2305 -48.584 60.9863 -48.5352 60.6934 -48.5352 L 74.0234 -35.2051 C 74.0234 -35.498 74.0723 -35.7422 74.0723 -36.0352 Z M 48.1934 -35.4492 C 48.1934 -28.5645 53.9062 -22.9492 60.791 -22.9492 C 61.084 -22.9492 61.377 -22.9492 61.6699 -22.998 L 48.2422 -36.4258 C 48.2422 -36.084 48.1934 -35.791 48.1934 -35.4492 Z"/>
  </g>
  <g id="Semibold-S" transform="matrix(1 0 0 1 1982.28 696)">
   <path d="M 91.1621 -0.878906 C 92.5293 0.488281 94.6289 0.537109 95.9961 -0.878906 C 97.3633 -2.29492 97.3145 -4.3457 95.9961 -5.66406 L 30.7617 -70.8496 C 29.3945 -72.2168 27.2461 -72.2168 25.8789 -70.8496 C 24.6094 -69.5801 24.6094 -67.334 25.8789 -66.0645 Z M 95.752 -13.2324 C 106.592 -20.7031 113.477 -30.7129 113.477 -35.2051 C 113.477 -42.9688 92.627 -68.2617 60.9863 -68.2617 C 54.6875 -68.2617 48.7305 -67.2852 43.3594 -65.5762 L 54.248 -54.6875 C 56.3477 -55.3711 58.6426 -55.8105 61.0352 -55.8105 C 72.4609 -55.8105 81.7383 -46.6797 81.7383 -35.1562 C 81.7383 -32.8125 81.2988 -30.5176 80.5176 -28.418 Z M 60.9863 -2.09961 C 67.8223 -2.09961 74.1211 -3.27148 79.7852 -5.22461 L 68.7988 -16.1621 C 66.4062 -15.1367 63.7695 -14.5508 61.0352 -14.5508 C 49.5117 -14.5508 40.2832 -23.9746 40.2832 -35.1562 C 40.2832 -37.9883 40.8203 -40.6738 41.8457 -43.1152 L 27.2949 -57.7148 C 15.625 -50 8.49609 -39.6973 8.49609 -35.2051 C 8.49609 -27.3926 29.834 -2.09961 60.9863 -2.09961 Z M 73.9746 -36.084 C 73.9746 -43.1152 68.3105 -48.877 61.1816 -48.877 C 60.8398 -48.877 60.4492 -48.8281 60.1074 -48.7793 L 73.9258 -35.0098 C 73.9258 -35.3516 73.9746 -35.6934 73.9746 -36.084 Z M 47.9004 -35.7422 C 47.9004 -28.7109 53.7109 -22.998 60.7422 -22.998 C 61.1328 -22.998 61.5234 -22.998 61.9141 -23.0469 L 47.998 -37.0117 C 47.9492 -36.5723 47.9004 -36.1816 47.9004 -35.7422 Z"/>
  </g>
  <g id="Medium-S" transform="matrix(1 0 0 1 1685.74 696)">
   <path d="M 90.625 -1.41602 C 91.9434 -0.0976562 94.043 0 95.4102 -1.41602 C 96.8262 -2.83203 96.7285 -4.83398 95.4102 -6.20117 L 30.957 -70.6055 C 29.6387 -71.9238 27.4414 -71.9238 26.123 -70.6055 C 24.8535 -69.3359 24.8535 -67.0898 26.123 -65.8203 Z M 95.4102 -13.3301 C 106.25 -20.7031 113.232 -30.7129 113.232 -35.2051 C 113.232 -43.0176 92.2363 -68.1152 60.8398 -68.1152 C 54.541 -68.1152 48.6328 -67.0898 43.2617 -65.4297 L 53.7598 -54.9316 C 55.957 -55.7129 58.3496 -56.1523 60.8398 -56.1523 C 72.5098 -56.1523 81.8848 -46.9238 81.8848 -35.2051 C 81.8848 -32.7148 81.4453 -30.3223 80.5664 -28.125 Z M 60.8398 -2.29492 C 67.7246 -2.29492 74.0723 -3.4668 79.7363 -5.46875 L 69.1895 -16.0156 C 66.6504 -14.8438 63.8184 -14.209 60.8398 -14.209 C 49.1211 -14.209 39.7949 -23.7793 39.7949 -35.2051 C 39.7461 -38.2324 40.3809 -41.0645 41.5527 -43.6523 L 27.4414 -57.7637 C 15.6738 -50.1465 8.39844 -39.7461 8.39844 -35.2051 C 8.39844 -27.3926 29.9316 -2.29492 60.8398 -2.29492 Z M 73.9258 -36.1328 C 73.9258 -43.2617 68.1641 -49.0723 60.9375 -49.0723 C 60.498 -49.0723 60.1074 -49.0234 59.668 -49.0234 L 73.8281 -34.8633 C 73.877 -35.2539 73.9258 -35.6934 73.9258 -36.1328 Z M 47.7051 -35.9863 C 47.7051 -28.8574 53.6133 -23.0469 60.7422 -23.0469 C 61.1816 -23.0469 61.6211 -23.0469 62.1094 -23.0957 L 47.7539 -37.4512 C 47.7539 -36.9629 47.7051 -36.4746 47.7051 -35.9863 Z"/>
  </g>
  <g id="Regular-S" transform="matrix(1 0 0 1 1389.22 696)">
   <path d="M 89.9414 -2.09961 C 91.2598 -0.78125 93.3105 -0.683594 94.6777 -2.09961 C 96.0938 -3.56445 95.9961 -5.51758 94.6777 -6.83594 L 31.2012 -70.2637 C 29.8828 -71.582 27.7344 -71.582 26.416 -70.2637 C 25.1465 -68.9941 25.1465 -66.7969 26.416 -65.5273 Z M 94.9707 -13.4277 C 105.762 -20.7031 112.939 -30.6641 112.939 -35.2051 C 112.939 -43.0664 91.6992 -67.8711 60.6445 -67.8711 C 54.3945 -67.8711 48.5352 -66.8945 43.1641 -65.2344 L 53.125 -55.2734 C 55.4688 -56.1523 57.959 -56.5918 60.6445 -56.5918 C 72.5586 -56.5918 82.0801 -47.2168 82.0801 -35.2051 C 82.0801 -32.5684 81.5918 -30.0293 80.6641 -27.7344 Z M 60.6445 -2.53906 C 67.5781 -2.53906 74.0234 -3.75977 79.6875 -5.76172 L 69.6777 -15.8203 C 66.9434 -14.502 63.8672 -13.8184 60.6445 -13.8184 C 48.6328 -13.8184 39.1602 -23.5352 39.1113 -35.2051 C 39.1113 -38.4766 39.8438 -41.6016 41.1133 -44.3848 L 27.6855 -57.8125 C 15.7715 -50.293 8.30078 -39.7949 8.30078 -35.2051 C 8.30078 -27.3926 30.0293 -2.53906 60.6445 -2.53906 Z M 73.8281 -36.1816 C 73.8281 -43.4082 67.9688 -49.3652 60.6445 -49.3652 C 60.1074 -49.3652 59.5703 -49.3164 59.082 -49.2676 L 73.7305 -34.6191 C 73.7793 -35.1074 73.8281 -35.6445 73.8281 -36.1816 Z M 47.4121 -36.2793 C 47.4121 -29.0039 53.418 -23.0957 60.6934 -23.0957 C 61.2793 -23.0957 61.7676 -23.1445 62.3535 -23.1934 L 47.5098 -38.0371 C 47.4609 -37.4512 47.4121 -36.8652 47.4121 -36.2793 Z"/>
  </g>
  <g id="Light-S" transform="matrix(1 0 0 1 1093.51 696)">
   <path d="M 89.6973 -2.05078 C 90.7227 -1.02539 92.334 -0.976562 93.4082 -2.05078 C 94.5312 -3.17383 94.4336 -4.73633 93.4082 -5.76172 L 29.0527 -70.0684 C 28.0273 -71.0938 26.3672 -71.0938 25.3418 -70.0684 C 24.3164 -69.0918 24.3164 -67.3828 25.3418 -66.3574 Z M 92.1387 -12.8906 C 103.662 -20.3613 111.084 -30.6641 111.084 -35.2051 C 111.084 -42.9199 89.8438 -67.5781 59.6191 -67.5781 C 52.8809 -67.5781 46.6309 -66.4062 40.918 -64.4043 L 50.8789 -54.4922 C 53.5156 -55.7129 56.4453 -56.4453 59.6191 -56.4453 C 71.3867 -56.4453 80.957 -47.0703 80.957 -35.2051 C 80.957 -32.0801 80.2246 -29.1016 78.8574 -26.5137 Z M 59.6191 -2.83203 C 66.8457 -2.83203 73.4863 -4.19922 79.3945 -6.44531 L 69.3848 -16.4062 C 66.4551 -14.8438 63.1348 -13.9648 59.6191 -13.9648 C 47.7539 -13.9648 38.3301 -23.6328 38.2812 -35.2051 C 38.2812 -38.7695 39.1602 -42.1875 40.7227 -45.1172 L 27.9297 -58.0566 C 15.7227 -50.4883 8.1543 -39.7949 8.1543 -35.2051 C 8.1543 -27.5391 29.6387 -2.83203 59.6191 -2.83203 Z M 70.9473 -35.8887 C 70.9473 -42.1387 65.918 -47.168 59.6191 -47.168 C 59.1797 -47.168 58.6914 -47.1191 58.252 -47.0703 L 70.8496 -34.4727 C 70.8984 -34.9121 70.9473 -35.4004 70.9473 -35.8887 Z M 48.291 -35.9375 C 48.291 -29.6875 53.418 -24.6094 59.668 -24.6094 C 60.1562 -24.6094 60.6445 -24.6582 61.1328 -24.707 L 48.3887 -37.5 C 48.3398 -36.9629 48.291 -36.4258 48.291 -35.9375 Z"/>
  </g>
  <g id="Thin-S" transform="matrix(1 0 0 1 798.146 696)">
   <path d="M 89.4531 -2.00195 C 90.0879 -1.36719 91.1133 -1.31836 91.748 -2.00195 C 92.4316 -2.68555 92.3828 -3.66211 91.748 -4.29688 L 26.2207 -69.8242 C 25.6348 -70.4102 24.5605 -70.459 23.9258 -69.8242 C 23.291 -69.1895 23.291 -68.1152 23.9258 -67.4805 Z M 88.4277 -12.1582 C 100.83 -19.9219 108.594 -30.6152 108.594 -35.2051 C 108.594 -42.7246 87.4023 -67.2363 58.3008 -67.2363 C 50.9277 -67.2363 44.1406 -65.7715 37.9883 -63.2812 L 47.9004 -53.4668 C 50.9277 -55.2246 54.4922 -56.25 58.3008 -56.25 C 69.8242 -56.25 79.3945 -46.9238 79.3945 -35.2051 C 79.3945 -31.4453 78.3203 -27.9297 76.4648 -24.9023 Z M 58.3008 -3.17383 C 65.8691 -3.17383 72.8516 -4.73633 78.9551 -7.32422 L 69.043 -17.2363 C 65.8691 -15.2832 62.207 -14.1602 58.3008 -14.1602 C 46.582 -14.1602 37.2559 -23.7305 37.1582 -35.2051 C 37.1094 -39.209 38.2324 -42.9199 40.1855 -46.0449 L 28.2227 -58.3984 C 15.625 -50.7324 7.95898 -39.7949 7.95898 -35.2051 C 7.95898 -27.6855 29.1016 -3.17383 58.3008 -3.17383 Z M 67.1387 -35.4492 C 67.1387 -40.3809 63.2324 -44.2383 58.3008 -44.2383 C 57.9102 -44.2383 57.5195 -44.2383 57.1289 -44.1895 L 67.041 -34.2285 C 67.0898 -34.6191 67.1387 -35.0586 67.1387 -35.4492 Z M 49.4141 -35.4492 C 49.4141 -30.5176 53.418 -26.6602 58.3008 -26.6602 C 58.6914 -26.6602 59.1309 -26.709 59.5215 -26.7578 L 49.5117 -36.7676 C 49.4629 -36.3281 49.4141 -35.8887 49.4141 -35.4492 Z"/>
  </g>
  <g id="Ultralight-S" transform="matrix(1 0 0 1 502.118 696)">
   <path d="M 89.3066 -1.95312 C 89.7461 -1.51367 90.4297 -1.51367 90.8691 -1.95312 C 91.3574 -2.44141 91.3086 -3.125 90.8691 -3.56445 L 24.7559 -69.6777 C 24.3652 -70.0684 23.6816 -70.166 23.1934 -69.6777 C 22.7539 -69.2383 22.7539 -68.5059 23.1934 -68.0664 Z M 86.4746 -11.8164 C 99.4141 -19.6777 107.324 -30.6152 107.324 -35.2051 C 107.324 -42.627 86.1328 -67.041 57.5684 -67.041 C 49.9023 -67.041 42.8223 -65.4297 36.4746 -62.7441 L 46.3867 -52.9297 C 49.6094 -54.9316 53.4668 -56.1523 57.5684 -56.1523 C 69.043 -56.1523 78.6133 -46.8262 78.6133 -35.2051 C 78.6133 -31.1523 77.3926 -27.2949 75.2441 -24.0723 Z M 57.5684 -3.36914 C 65.3809 -3.36914 72.5098 -5.07812 78.7109 -7.8125 L 68.8477 -17.627 C 65.5762 -15.5273 61.7188 -14.2578 57.5684 -14.2578 C 45.9473 -14.2578 36.7188 -23.8281 36.5723 -35.2051 C 36.5234 -39.4043 37.7441 -43.3105 39.8926 -46.582 L 28.3691 -58.5449 C 15.5273 -50.8301 7.86133 -39.7949 7.86133 -35.2051 C 7.86133 -27.7832 28.8086 -3.36914 57.5684 -3.36914 Z M 65.1855 -35.2539 C 65.1855 -39.502 61.8652 -42.7246 57.6172 -42.7246 C 57.2754 -42.7246 56.8848 -42.7246 56.543 -42.6758 L 65.0879 -34.1309 C 65.1367 -34.4727 65.1855 -34.8633 65.1855 -35.2539 Z M 50 -35.2051 C 50 -30.957 53.3691 -27.7344 57.6172 -27.7344 C 57.959 -27.7344 58.3496 -27.7344 58.6914 -27.7832 L 50.0977 -36.377 C 50.0488 -36.0352 50 -35.5957 50 -35.2051 Z"/>
  </g>
 </g>
</svg>
