<?xml version="1.0" encoding="UTF-8"?>
<!--Generator: Apple Native CoreSVG 123-->
<!DOCTYPE svg
PUBLIC "-//W3C//DTD SVG 1.1//EN"
       "http://www.w3.org/Graphics/SVG/1.1/DTD/svg11.dtd">
<svg version="1.1" xmlns="http://www.w3.org/2000/svg" xmlns:xlink="http://www.w3.org/1999/xlink" width="3300" height="2200">
 <!--glyph: "uni10042F.medium", point size: 100.000000, font version: "Version 15.0d7e11", template writer version: "5"-->
 <g id="Notes">
  <rect height="2200" id="artboard" style="fill:white;opacity:1" width="3300" x="0" y="0"/>
  <line id="" style="fill:none;stroke:black;opacity:1;stroke-width:0.5;" x1="263" x2="3036" y1="292" y2="292"/>
  <text style="stroke:none;fill:black;font-family:-apple-system,&quot;SF Pro Display&quot;,&quot;SF Pro Text&quot;,Helvetica,sans-serif;font-weight:bold;" transform="matrix(1 0 0 1 263 322)">Weight/Scale Variations</text>
  <text style="stroke:none;fill:black;font-family:-apple-system,&quot;SF Pro Display&quot;,&quot;SF Pro Text&quot;,Helvetica,sans-serif;text-anchor:middle;" transform="matrix(1 0 0 1 559.711 322)">Ultralight</text>
  <text style="stroke:none;fill:black;font-family:-apple-system,&quot;SF Pro Display&quot;,&quot;SF Pro Text&quot;,Helvetica,sans-serif;text-anchor:middle;" transform="matrix(1 0 0 1 856.422 322)">Thin</text>
  <text style="stroke:none;fill:black;font-family:-apple-system,&quot;SF Pro Display&quot;,&quot;SF Pro Text&quot;,Helvetica,sans-serif;text-anchor:middle;" transform="matrix(1 0 0 1 1153.13 322)">Light</text>
  <text style="stroke:none;fill:black;font-family:-apple-system,&quot;SF Pro Display&quot;,&quot;SF Pro Text&quot;,Helvetica,sans-serif;text-anchor:middle;" transform="matrix(1 0 0 1 1449.84 322)">Regular</text>
  <text style="stroke:none;fill:black;font-family:-apple-system,&quot;SF Pro Display&quot;,&quot;SF Pro Text&quot;,Helvetica,sans-serif;text-anchor:middle;" transform="matrix(1 0 0 1 1746.56 322)">Medium</text>
  <text style="stroke:none;fill:black;font-family:-apple-system,&quot;SF Pro Display&quot;,&quot;SF Pro Text&quot;,Helvetica,sans-serif;text-anchor:middle;" transform="matrix(1 0 0 1 2043.27 322)">Semibold</text>
  <text style="stroke:none;fill:black;font-family:-apple-system,&quot;SF Pro Display&quot;,&quot;SF Pro Text&quot;,Helvetica,sans-serif;text-anchor:middle;" transform="matrix(1 0 0 1 2339.98 322)">Bold</text>
  <text style="stroke:none;fill:black;font-family:-apple-system,&quot;SF Pro Display&quot;,&quot;SF Pro Text&quot;,Helvetica,sans-serif;text-anchor:middle;" transform="matrix(1 0 0 1 2636.69 322)">Heavy</text>
  <text style="stroke:none;fill:black;font-family:-apple-system,&quot;SF Pro Display&quot;,&quot;SF Pro Text&quot;,Helvetica,sans-serif;text-anchor:middle;" transform="matrix(1 0 0 1 2933.4 322)">Black</text>
  <line id="" style="fill:none;stroke:black;opacity:1;stroke-width:0.5;" x1="263" x2="3036" y1="1903" y2="1903"/>
  <g id="" transform="matrix(1 0 0 1 263 1933)">
   <path d="M 9.24805 0.830078 C 13.5547 0.830078 17.1387 -2.74414 17.1387 -7.05078 C 17.1387 -11.3574 13.5449 -14.9316 9.23828 -14.9316 C 4.94141 -14.9316 1.36719 -11.3574 1.36719 -7.05078 C 1.36719 -2.74414 4.95117 0.830078 9.24805 0.830078 Z M 9.24805 -0.654297 C 5.70312 -0.654297 2.87109 -3.49609 2.87109 -7.05078 C 2.87109 -10.6055 5.69336 -13.4473 9.23828 -13.4473 C 12.793 -13.4473 15.6348 -10.6055 15.6445 -7.05078 C 15.6543 -3.49609 12.8027 -0.654297 9.24805 -0.654297 Z M 9.22852 -3.42773 C 9.69727 -3.42773 9.9707 -3.74023 9.9707 -4.25781 L 9.9707 -6.31836 L 12.1973 -6.31836 C 12.6953 -6.31836 13.0371 -6.57227 13.0371 -7.04102 C 13.0371 -7.51953 12.7148 -7.7832 12.1973 -7.7832 L 9.9707 -7.7832 L 9.9707 -10.0098 C 9.9707 -10.5273 9.69727 -10.8496 9.22852 -10.8496 C 8.75977 -10.8496 8.50586 -10.5078 8.50586 -10.0098 L 8.50586 -7.7832 L 6.29883 -7.7832 C 5.78125 -7.7832 5.44922 -7.51953 5.44922 -7.04102 C 5.44922 -6.57227 5.80078 -6.31836 6.29883 -6.31836 L 8.50586 -6.31836 L 8.50586 -4.25781 C 8.50586 -3.75977 8.75977 -3.42773 9.22852 -3.42773 Z"/>
  </g>
  <g id="" transform="matrix(1 0 0 1 281.506 1933)">
   <path d="M 11.709 2.91016 C 17.1582 2.91016 21.6699 -1.60156 21.6699 -7.05078 C 21.6699 -12.4902 17.1484 -17.0117 11.6992 -17.0117 C 6.25977 -17.0117 1.74805 -12.4902 1.74805 -7.05078 C 1.74805 -1.60156 6.26953 2.91016 11.709 2.91016 Z M 11.709 1.25 C 7.09961 1.25 3.41797 -2.44141 3.41797 -7.05078 C 3.41797 -11.6504 7.08984 -15.3516 11.6992 -15.3516 C 16.3086 -15.3516 20 -11.6504 20.0098 -7.05078 C 20.0195 -2.44141 16.3184 1.25 11.709 1.25 Z M 11.6895 -2.41211 C 12.207 -2.41211 12.5195 -2.77344 12.5195 -3.33984 L 12.5195 -6.23047 L 15.5762 -6.23047 C 16.123 -6.23047 16.5039 -6.51367 16.5039 -7.03125 C 16.5039 -7.55859 16.1426 -7.86133 15.5762 -7.86133 L 12.5195 -7.86133 L 12.5195 -10.9277 C 12.5195 -11.5039 12.207 -11.8555 11.6895 -11.8555 C 11.1719 -11.8555 10.8789 -11.4844 10.8789 -10.9277 L 10.8789 -7.86133 L 7.83203 -7.86133 C 7.26562 -7.86133 6.89453 -7.55859 6.89453 -7.03125 C 6.89453 -6.51367 7.28516 -6.23047 7.83203 -6.23047 L 10.8789 -6.23047 L 10.8789 -3.33984 C 10.8789 -2.79297 11.1719 -2.41211 11.6895 -2.41211 Z"/>
  </g>
  <g id="" transform="matrix(1 0 0 1 304.924 1933)">
   <path d="M 14.9707 5.67383 C 21.9336 5.67383 27.6953 -0.078125 27.6953 -7.04102 C 27.6953 -14.0039 21.9238 -19.7559 14.9609 -19.7559 C 8.00781 -19.7559 2.25586 -14.0039 2.25586 -7.04102 C 2.25586 -0.078125 8.01758 5.67383 14.9707 5.67383 Z M 14.9707 3.85742 C 8.93555 3.85742 4.08203 -1.00586 4.08203 -7.04102 C 4.08203 -13.0762 8.92578 -17.9395 14.9609 -17.9395 C 21.0059 -17.9395 25.8594 -13.0762 25.8691 -7.04102 C 25.8789 -1.00586 21.0156 3.85742 14.9707 3.85742 Z M 14.9512 -1.06445 C 15.5176 -1.06445 15.8691 -1.45508 15.8691 -2.06055 L 15.8691 -6.13281 L 20.1074 -6.13281 C 20.6934 -6.13281 21.1133 -6.46484 21.1133 -7.02148 C 21.1133 -7.59766 20.7227 -7.93945 20.1074 -7.93945 L 15.8691 -7.93945 L 15.8691 -12.1875 C 15.8691 -12.8027 15.5176 -13.1934 14.9512 -13.1934 C 14.3848 -13.1934 14.0625 -12.7832 14.0625 -12.1875 L 14.0625 -7.93945 L 9.83398 -7.93945 C 9.21875 -7.93945 8.80859 -7.59766 8.80859 -7.02148 C 8.80859 -6.46484 9.23828 -6.13281 9.83398 -6.13281 L 14.0625 -6.13281 L 14.0625 -2.06055 C 14.0625 -1.47461 14.3848 -1.06445 14.9512 -1.06445 Z"/>
  </g>
  <text style="stroke:none;fill:black;font-family:-apple-system,&quot;SF Pro Display&quot;,&quot;SF Pro Text&quot;,Helvetica,sans-serif;font-weight:bold;" transform="matrix(1 0 0 1 263 1953)">Design Variations</text>
  <text style="stroke:none;fill:black;font-family:-apple-system,&quot;SF Pro Display&quot;,&quot;SF Pro Text&quot;,Helvetica,sans-serif;" transform="matrix(1 0 0 1 263 1971)">Symbols are supported in up to nine weights and three scales.</text>
  <text style="stroke:none;fill:black;font-family:-apple-system,&quot;SF Pro Display&quot;,&quot;SF Pro Text&quot;,Helvetica,sans-serif;" transform="matrix(1 0 0 1 263 1989)">For optimal layout with text and other symbols, vertically align</text>
  <text style="stroke:none;fill:black;font-family:-apple-system,&quot;SF Pro Display&quot;,&quot;SF Pro Text&quot;,Helvetica,sans-serif;" transform="matrix(1 0 0 1 263 2007)">symbols with the adjacent text.</text>
  <rect height="14" id="" style="fill:#00AEEF;stroke:none;opacity:0.4;" width="3" x="776" y="1919"/>
  <g id="" transform="matrix(1 0 0 1 779 1933)">
   <path d="M 10.5273 0 L 12.373 0 L 7.17773 -14.0918 L 5.43945 -14.0918 L 0.244141 0 L 2.08984 0 L 3.50586 -4.0332 L 9.11133 -4.0332 Z M 6.2793 -11.9531 L 6.33789 -11.9531 L 8.59375 -5.52734 L 4.02344 -5.52734 Z"/>
  </g>
  <rect height="14" id="" style="fill:#00AEEF;stroke:none;opacity:0.4;" width="3" x="791.617" y="1919"/>
  <text style="stroke:none;fill:black;font-family:-apple-system,&quot;SF Pro Display&quot;,&quot;SF Pro Text&quot;,Helvetica,sans-serif;font-weight:bold;" transform="matrix(1 0 0 1 776 1953)">Margins</text>
  <text style="stroke:none;fill:black;font-family:-apple-system,&quot;SF Pro Display&quot;,&quot;SF Pro Text&quot;,Helvetica,sans-serif;" transform="matrix(1 0 0 1 776 1971)">Leading and trailing margins on the left and right side of each symbol</text>
  <text style="stroke:none;fill:black;font-family:-apple-system,&quot;SF Pro Display&quot;,&quot;SF Pro Text&quot;,Helvetica,sans-serif;" transform="matrix(1 0 0 1 776 1989)">can be adjusted by modifying the width of the blue rectangles.</text>
  <text style="stroke:none;fill:black;font-family:-apple-system,&quot;SF Pro Display&quot;,&quot;SF Pro Text&quot;,Helvetica,sans-serif;" transform="matrix(1 0 0 1 776 2007)">Modifications are automatically applied proportionally to all</text>
  <text style="stroke:none;fill:black;font-family:-apple-system,&quot;SF Pro Display&quot;,&quot;SF Pro Text&quot;,Helvetica,sans-serif;" transform="matrix(1 0 0 1 776 2025)">scales and weights.</text>
  <g id="" transform="matrix(1 0 0 1 1289 1933)">
   <path d="M 2.83203 3.11523 L 4.375 4.6582 C 5.22461 5.48828 6.19141 5.41992 7.06055 4.46289 L 17.2754 -6.66016 C 17.7051 -6.36719 18.0957 -6.37695 18.5645 -6.47461 L 19.6094 -6.68945 L 20.3027 -5.99609 L 20.2539 -5.47852 C 20.1855 -4.95117 20.3516 -4.53125 20.8496 -4.0332 L 21.6602 -3.22266 C 22.168 -2.71484 22.8223 -2.68555 23.3008 -3.16406 L 26.5527 -6.41602 C 27.0312 -6.89453 27.0117 -7.54883 26.5039 -8.05664 L 25.6836 -8.87695 C 25.1855 -9.375 24.7754 -9.55078 24.2383 -9.47266 L 23.7109 -9.41406 L 23.0566 -10.0781 L 23.3398 -11.2207 C 23.4863 -11.7871 23.3398 -12.2559 22.7148 -12.8613 L 20.3027 -15.2539 C 16.7578 -18.7793 12.2266 -18.6719 9.11133 -15.5371 C 8.69141 -15.1074 8.64258 -14.5215 8.91602 -14.0918 C 9.15039 -13.7207 9.62891 -13.4961 10.2734 -13.6621 C 11.7871 -14.043 13.3008 -13.9258 14.7852 -12.9199 L 14.1602 -11.3379 C 13.9258 -10.752 13.9453 -10.2734 14.1797 -9.83398 L 3.01758 0.439453 C 2.08008 1.30859 1.97266 2.25586 2.83203 3.11523 Z M 10.6738 -15.1465 C 13.3398 -17.1387 16.6504 -16.8262 19.0527 -14.4141 L 21.6797 -11.8066 C 21.9141 -11.5723 21.9434 -11.3867 21.8848 -11.0938 L 21.5039 -9.53125 L 23.0762 -7.95898 L 24.043 -8.04688 C 24.3262 -8.07617 24.4141 -8.05664 24.6387 -7.83203 L 25.2637 -7.20703 L 22.5098 -4.46289 L 21.8848 -5.07812 C 21.6602 -5.30273 21.6406 -5.40039 21.6699 -5.68359 L 21.7578 -6.64062 L 20.1953 -8.20312 L 18.5742 -7.89062 C 18.291 -7.83203 18.1445 -7.83203 17.9102 -8.07617 L 15.7324 -10.2539 C 15.5078 -10.4883 15.4785 -10.625 15.6055 -10.9473 L 16.5527 -13.2227 C 14.9512 -14.7559 12.8418 -15.6055 10.8008 -14.9512 C 10.7129 -14.9219 10.6445 -14.9414 10.6152 -14.9805 C 10.5859 -15.0293 10.5859 -15.0781 10.6738 -15.1465 Z M 4.10156 2.41211 C 3.61328 1.91406 3.78906 1.61133 4.12109 1.30859 L 15.0781 -8.80859 L 16.3086 -7.57812 L 6.15234 3.34961 C 5.84961 3.68164 5.46875 3.7793 5.06836 3.37891 Z"/>
  </g>
  <text style="stroke:none;fill:black;font-family:-apple-system,&quot;SF Pro Display&quot;,&quot;SF Pro Text&quot;,Helvetica,sans-serif;font-weight:bold;" transform="matrix(1 0 0 1 1289 1953)">Exporting</text>
  <text style="stroke:none;fill:black;font-family:-apple-system,&quot;SF Pro Display&quot;,&quot;SF Pro Text&quot;,Helvetica,sans-serif;" transform="matrix(1 0 0 1 1289 1971)">Symbols should be outlined when exporting to ensure the</text>
  <text style="stroke:none;fill:black;font-family:-apple-system,&quot;SF Pro Display&quot;,&quot;SF Pro Text&quot;,Helvetica,sans-serif;" transform="matrix(1 0 0 1 1289 1989)">design is preserved when submitting to Xcode.</text>
  <text id="template-version" style="stroke:none;fill:black;font-family:-apple-system,&quot;SF Pro Display&quot;,&quot;SF Pro Text&quot;,Helvetica,sans-serif;text-anchor:end;" transform="matrix(1 0 0 1 3036 1933)">Template v.1.0</text>
  <text style="stroke:none;fill:black;font-family:-apple-system,&quot;SF Pro Display&quot;,&quot;SF Pro Text&quot;,Helvetica,sans-serif;text-anchor:end;" transform="matrix(1 0 0 1 3036 1951)">Generated from stopwatch</text>
  <text style="stroke:none;fill:black;font-family:-apple-system,&quot;SF Pro Display&quot;,&quot;SF Pro Text&quot;,Helvetica,sans-serif;text-anchor:end;" transform="matrix(1 0 0 1 3036 1969)">Typeset at 100 points</text>
  <text style="stroke:none;fill:black;font-family:-apple-system,&quot;SF Pro Display&quot;,&quot;SF Pro Text&quot;,Helvetica,sans-serif;" transform="matrix(1 0 0 1 263 726)">Small</text>
  <text style="stroke:none;fill:black;font-family:-apple-system,&quot;SF Pro Display&quot;,&quot;SF Pro Text&quot;,Helvetica,sans-serif;" transform="matrix(1 0 0 1 263 1156)">Medium</text>
  <text style="stroke:none;fill:black;font-family:-apple-system,&quot;SF Pro Display&quot;,&quot;SF Pro Text&quot;,Helvetica,sans-serif;" transform="matrix(1 0 0 1 263 1586)">Large</text>
 </g>
 <g id="Guides">
  <g id="H-reference" style="fill:#27AAE1;stroke:none;" transform="matrix(1 0 0 1 339 696)">
   <path d="M 54.9316 0 L 57.666 0 L 30.5664 -70.459 L 28.0762 -70.459 L 0.976562 0 L 3.66211 0 L 12.9395 -24.4629 L 45.7031 -24.4629 Z M 29.1992 -67.0898 L 29.4434 -67.0898 L 44.8242 -26.709 L 13.8184 -26.709 Z"/>
  </g>
  <line id="Baseline-S" style="fill:none;stroke:#27AAE1;opacity:1;stroke-width:0.577;" x1="263" x2="3036" y1="696" y2="696"/>
  <line id="Capline-S" style="fill:none;stroke:#27AAE1;opacity:1;stroke-width:0.577;" x1="263" x2="3036" y1="625.541" y2="625.541"/>
  <g id="H-reference" style="fill:#27AAE1;stroke:none;" transform="matrix(1 0 0 1 339 1126)">
   <path d="M 54.9316 0 L 57.666 0 L 30.5664 -70.459 L 28.0762 -70.459 L 0.976562 0 L 3.66211 0 L 12.9395 -24.4629 L 45.7031 -24.4629 Z M 29.1992 -67.0898 L 29.4434 -67.0898 L 44.8242 -26.709 L 13.8184 -26.709 Z"/>
  </g>
  <line id="Baseline-M" style="fill:none;stroke:#27AAE1;opacity:1;stroke-width:0.577;" x1="263" x2="3036" y1="1126" y2="1126"/>
  <line id="Capline-M" style="fill:none;stroke:#27AAE1;opacity:1;stroke-width:0.577;" x1="263" x2="3036" y1="1055.54" y2="1055.54"/>
  <g id="H-reference" style="fill:#27AAE1;stroke:none;" transform="matrix(1 0 0 1 339 1556)">
   <path d="M 54.9316 0 L 57.666 0 L 30.5664 -70.459 L 28.0762 -70.459 L 0.976562 0 L 3.66211 0 L 12.9395 -24.4629 L 45.7031 -24.4629 Z M 29.1992 -67.0898 L 29.4434 -67.0898 L 44.8242 -26.709 L 13.8184 -26.709 Z"/>
  </g>
  <line id="Baseline-L" style="fill:none;stroke:#27AAE1;opacity:1;stroke-width:0.577;" x1="263" x2="3036" y1="1556" y2="1556"/>
  <line id="Capline-L" style="fill:none;stroke:#27AAE1;opacity:1;stroke-width:0.577;" x1="263" x2="3036" y1="1485.54" y2="1485.54"/>
  <rect height="119.336" id="left-margin" style="fill:#00AEEF;stroke:none;opacity:0.4;" width="8.74023" x="1391.3" y="1030.79"/>
  <rect height="119.336" id="right-margin" style="fill:#00AEEF;stroke:none;opacity:0.4;" width="8.74023" x="1499.65" y="1030.79"/>
 </g>
 <g id="Symbols">
  <g id="Black-L" transform="matrix(1 0 0 1 2854.05 1556)">
   <path d="M 79.3457 32.8613 C 116.748 32.8613 147.412 2.19727 147.412 -35.2051 C 147.412 -48.8281 143.359 -61.5234 136.377 -72.2168 L 141.602 -77.3438 C 143.75 -79.4434 144.775 -81.6406 144.775 -84.1797 C 144.775 -89.1602 140.918 -93.1152 135.889 -93.1152 C 132.91 -93.1152 130.859 -92.2363 128.76 -90.2832 L 124.365 -86.084 C 114.551 -94.8242 102.197 -100.781 88.623 -102.637 L 88.623 -109.424 C 88.623 -114.648 84.4727 -118.604 79.3945 -118.604 C 74.4141 -118.604 70.1172 -114.648 70.1172 -109.424 L 70.1172 -102.637 C 37.0117 -98.0957 11.2793 -69.4824 11.2793 -35.2051 C 11.2793 2.19727 41.9434 32.8613 79.3457 32.8613 Z M 79.3457 12.4023 C 52.9785 12.4023 31.7383 -8.83789 31.7383 -35.2051 C 31.7383 -61.5723 52.9297 -82.8125 79.2969 -82.8125 C 105.664 -82.8125 126.953 -61.5723 126.953 -35.2051 C 127.002 -8.83789 105.713 12.4023 79.3457 12.4023 Z M 79.3457 -21.8262 C 86.7188 -21.8262 92.6758 -27.832 92.6758 -35.2051 C 92.6758 -39.8926 90.2344 -44.043 86.5723 -46.3867 L 86.5723 -68.0664 C 86.5723 -72.1191 83.3984 -75.293 79.2969 -75.293 C 75.2441 -75.293 72.0703 -72.1191 72.0703 -68.0664 L 72.0703 -46.3867 C 68.4082 -43.9941 65.9668 -39.8926 65.9668 -35.2051 C 65.9668 -27.832 71.9727 -21.8262 79.3457 -21.8262 Z"/>
  </g>
  <g id="Heavy-L" transform="matrix(1 0 0 1 2558.39 1556)">
   <path d="M 78.2715 31.7871 C 115.088 31.7871 145.312 1.61133 145.312 -35.2051 C 145.312 -49.1211 140.967 -62.0605 133.643 -72.8027 L 138.965 -78.0762 C 140.918 -79.9805 141.846 -82.0801 141.846 -84.3262 C 141.846 -88.916 138.281 -92.4805 133.691 -92.4805 C 131.006 -92.4805 129.102 -91.6992 127.197 -89.8926 L 122.51 -85.4004 C 112.695 -94.0918 100.342 -99.9512 86.7188 -101.66 L 86.7188 -108.594 C 86.7188 -113.379 82.959 -117.041 78.3203 -117.041 C 73.7305 -117.041 69.8242 -113.379 69.8242 -108.594 L 69.8242 -101.66 C 36.9629 -97.5098 11.2793 -69.1406 11.2793 -35.2051 C 11.2793 1.61133 41.5039 31.7871 78.2715 31.7871 Z M 78.2715 14.0137 C 51.0254 14.0137 29.0527 -7.95898 29.0527 -35.2051 C 29.0527 -62.5 50.9766 -84.4727 78.2715 -84.4727 C 105.518 -84.4727 127.49 -62.5 127.539 -35.2051 C 127.539 -7.95898 105.566 14.0137 78.2715 14.0137 Z M 78.2715 -22.8027 C 85.1074 -22.8027 90.6738 -28.3691 90.6738 -35.2051 C 90.6738 -39.6484 88.3301 -43.5547 84.7168 -45.752 L 84.7168 -70.1172 C 84.7168 -73.7305 81.8848 -76.5137 78.2715 -76.5137 C 74.6582 -76.5137 71.8262 -73.7305 71.8262 -70.1172 L 71.8262 -45.752 C 68.2617 -43.5547 65.8691 -39.6484 65.8691 -35.2051 C 65.8691 -28.3691 71.4355 -22.8027 78.2715 -22.8027 Z"/>
  </g>
  <g id="Bold-L" transform="matrix(1 0 0 1 2262.88 1556)">
   <path d="M 77.0996 30.6152 C 113.232 30.6152 142.92 0.878906 142.92 -35.2051 C 142.92 -49.4141 138.33 -62.6465 130.518 -73.4863 L 135.986 -78.9062 C 137.695 -80.6152 138.574 -82.5684 138.574 -84.5703 C 138.574 -88.623 135.352 -91.7969 131.25 -91.7969 C 128.857 -91.7969 127.148 -91.1133 125.439 -89.502 L 120.41 -84.6191 C 110.596 -93.2129 98.2422 -99.0234 84.668 -100.586 L 84.668 -107.666 C 84.668 -111.963 81.2988 -115.283 77.0996 -115.283 C 72.998 -115.283 69.5312 -111.963 69.5312 -107.666 L 69.5312 -100.586 C 36.9141 -96.7773 11.2793 -68.75 11.2793 -35.2051 C 11.2793 0.878906 41.0156 30.6152 77.0996 30.6152 Z M 77.0996 15.8691 C 48.8281 15.8691 26.0742 -6.93359 26.0742 -35.2051 C 26.0742 -63.4766 48.7793 -86.2793 77.0508 -86.2793 C 105.371 -86.2793 128.125 -63.4766 128.174 -35.2051 C 128.174 -6.93359 105.371 15.8691 77.0996 15.8691 Z M 77.0996 -23.8281 C 83.3496 -23.8281 88.4277 -28.9062 88.4277 -35.2051 C 88.4277 -39.4043 86.1328 -43.0176 82.6172 -45.0195 L 82.6172 -72.4121 C 82.6172 -75.4883 80.1758 -77.8809 77.0508 -77.8809 C 73.9746 -77.8809 71.582 -75.4883 71.582 -72.4121 L 71.582 -45.0684 C 68.0664 -43.0176 65.7715 -39.3555 65.7715 -35.2051 C 65.7715 -28.9551 70.8008 -23.8281 77.0996 -23.8281 Z"/>
  </g>
  <g id="Semibold-L" transform="matrix(1 0 0 1 1966.97 1556)">
   <path d="M 76.2695 29.7852 C 111.914 29.7852 141.309 0.439453 141.309 -35.2051 C 141.309 -49.6582 136.475 -63.0859 128.369 -73.9258 L 133.936 -79.4922 C 135.498 -81.0547 136.279 -82.8613 136.279 -84.7168 C 136.279 -88.3789 133.35 -91.3574 129.59 -91.3574 C 127.393 -91.3574 125.83 -90.7227 124.219 -89.209 L 118.945 -84.0332 C 109.131 -92.627 96.7773 -98.3887 83.2031 -99.8535 L 83.2031 -107.031 C 83.2031 -110.986 80.127 -114.111 76.2695 -114.111 C 72.4609 -114.111 69.2871 -110.986 69.2871 -107.031 L 69.2871 -99.8535 C 36.8652 -96.3379 11.2793 -68.5059 11.2793 -35.2051 C 11.2793 0.439453 40.6738 29.7852 76.2695 29.7852 Z M 76.2695 17.0898 C 47.3145 17.0898 24.0234 -6.25 24.0234 -35.2051 C 24.0234 -64.209 47.2656 -87.5 76.2695 -87.5 C 105.225 -87.5 128.564 -64.209 128.613 -35.2051 C 128.662 -6.25 105.273 17.0898 76.2695 17.0898 Z M 76.2695 -24.5605 C 82.1777 -24.5605 86.8652 -29.3457 86.8652 -35.2051 C 86.8652 -39.209 84.668 -42.627 81.1523 -44.5312 L 81.1523 -73.9746 C 81.1523 -76.709 79.0039 -78.8574 76.2695 -78.8574 C 73.5352 -78.8574 71.3867 -76.709 71.3867 -73.9746 L 71.3867 -44.5801 C 67.9199 -42.627 65.6738 -39.1602 65.6738 -35.2051 C 65.6738 -29.3457 70.3613 -24.5605 76.2695 -24.5605 Z"/>
  </g>
  <g id="Medium-L" transform="matrix(1 0 0 1 1670.87 1556)">
   <path d="M 75.6836 29.1992 C 110.938 29.1992 140.088 0.0488281 140.088 -35.2051 C 140.088 -49.8047 135.059 -63.3789 126.709 -74.2188 L 132.373 -79.9316 C 133.789 -81.3477 134.57 -83.1055 134.57 -84.8145 C 134.57 -88.2324 131.836 -91.0156 128.271 -91.0156 C 126.27 -91.0156 124.805 -90.3809 123.291 -89.0137 L 117.871 -83.6426 C 108.057 -92.1875 95.7031 -97.9004 82.1289 -99.2676 L 82.1289 -106.543 C 82.1289 -110.254 79.248 -113.184 75.6348 -113.184 C 72.0703 -113.184 69.1406 -110.254 69.1406 -106.543 L 69.1406 -99.2676 C 36.8652 -95.9473 11.2793 -68.3105 11.2793 -35.2051 C 11.2793 0.0488281 40.3809 29.1992 75.6836 29.1992 Z M 75.6836 18.0664 C 46.1426 18.0664 22.4609 -5.71289 22.4609 -35.2051 C 22.4609 -64.6973 46.1426 -88.4766 75.6348 -88.4766 C 105.127 -88.4766 128.906 -64.6973 128.906 -35.2051 C 128.955 -5.71289 105.176 18.0664 75.6836 18.0664 Z M 75.6836 -25.1465 C 81.25 -25.1465 85.6934 -29.6387 85.6934 -35.2051 C 85.6934 -39.0625 83.5449 -42.3828 80.0781 -44.1406 L 80.0781 -75.1953 C 80.0781 -77.6367 78.125 -79.541 75.6348 -79.541 C 73.1934 -79.541 71.2402 -77.6367 71.2402 -75.1953 L 71.2402 -44.1895 C 67.8223 -42.3828 65.625 -39.0137 65.625 -35.2051 C 65.625 -29.6387 70.0684 -25.1465 75.6836 -25.1465 Z"/>
  </g>
  <g id="Regular-L" transform="matrix(1 0 0 1 1374.97 1556)">
   <path d="M 74.8535 28.3691 C 109.668 28.3691 138.477 -0.390625 138.477 -35.2051 C 138.477 -50.0488 133.203 -63.7695 124.512 -74.6582 L 130.322 -80.5176 C 131.592 -81.7871 132.324 -83.4473 132.324 -84.9609 C 132.324 -88.0371 129.834 -90.5273 126.611 -90.5273 C 124.805 -90.5273 123.438 -89.9902 122.119 -88.7207 L 116.455 -83.1055 C 106.641 -91.6016 94.2383 -97.2656 80.7129 -98.5352 L 80.7129 -105.957 C 80.7129 -109.277 78.125 -112.012 74.8047 -112.012 C 71.582 -112.012 68.9453 -109.277 68.9453 -105.957 L 68.9453 -98.5352 C 36.8164 -95.5078 11.2793 -68.0176 11.2793 -35.2051 C 11.2793 -0.390625 40.0879 28.3691 74.8535 28.3691 Z M 74.8535 19.2871 C 44.6777 19.2871 20.4102 -5.0293 20.4102 -35.2051 C 20.4102 -65.3809 44.6289 -89.6973 74.8047 -89.6973 C 105.029 -89.6973 129.297 -65.3809 129.346 -35.2051 C 129.395 -5.0293 105.078 19.2871 74.8535 19.2871 Z M 74.8535 -25.8301 C 80.0293 -25.8301 84.1309 -30.0293 84.1309 -35.2051 C 84.1309 -38.8672 82.0801 -41.9922 78.6133 -43.6523 L 78.6133 -76.7578 C 78.6133 -78.8574 76.9531 -80.4688 74.8047 -80.4688 C 72.7539 -80.4688 71.0449 -78.8574 71.0449 -76.7578 L 71.0449 -43.7012 C 67.6758 -41.9922 65.5273 -38.8672 65.5273 -35.2051 C 65.5273 -30.0293 69.6289 -25.8301 74.8535 -25.8301 Z"/>
  </g>
  <g id="Light-L" transform="matrix(1 0 0 1 1079.18 1556)">
   <path d="M 73.9258 27.4902 C 108.301 27.4902 136.621 -0.830078 136.621 -35.1562 C 136.621 -50.1953 131.201 -64.0625 122.217 -74.9023 L 129.248 -81.9824 C 130.273 -83.0078 130.859 -84.3262 130.859 -85.5469 C 130.859 -87.9883 128.857 -90.0391 126.27 -90.0391 C 124.805 -90.0391 123.73 -89.5996 122.656 -88.5254 L 115.723 -81.6895 C 105.713 -90.7227 92.7734 -96.582 78.6133 -97.6562 L 78.6133 -106.787 C 78.6133 -109.473 76.5625 -111.621 73.9258 -111.621 C 71.2891 -111.621 69.1895 -109.473 69.1895 -106.787 L 69.1895 -97.6562 C 37.0117 -95.2148 11.2793 -67.9199 11.2793 -35.1562 C 11.2793 -0.830078 39.5996 27.4902 73.9258 27.4902 Z M 73.9258 20.6055 C 43.1152 20.6055 18.2129 -4.3457 18.2129 -35.1562 C 18.2129 -66.0156 43.0664 -90.918 73.9258 -90.918 C 104.736 -90.918 129.688 -66.0156 129.736 -35.1562 C 129.736 -4.3457 104.785 20.6055 73.9258 20.6055 Z M 73.9258 -26.9531 C 78.5156 -26.9531 82.0801 -30.5664 82.0801 -35.2051 C 82.0801 -38.4277 80.2734 -41.1621 76.9531 -42.7246 L 76.9531 -78.2715 C 76.9531 -79.9316 75.6348 -81.1523 73.9258 -81.1523 C 72.3145 -81.1523 70.9961 -79.9316 70.9961 -78.2715 L 70.9961 -42.8223 C 67.7246 -41.2109 65.7715 -38.4277 65.7715 -35.2051 C 65.7715 -30.6152 69.3359 -26.9531 73.9258 -26.9531 Z"/>
  </g>
  <g id="Thin-L" transform="matrix(1 0 0 1 783.693 1556)">
   <path d="M 72.7051 26.3184 C 106.494 26.3184 134.18 -1.36719 134.18 -35.1074 C 134.18 -50.3906 128.516 -64.4043 119.189 -75.1953 L 127.783 -83.8867 C 128.516 -84.6191 128.906 -85.4492 128.906 -86.377 C 128.906 -87.9395 127.49 -89.3555 125.781 -89.3555 C 124.805 -89.3555 124.072 -89.0625 123.34 -88.3301 L 114.746 -79.7852 C 104.492 -89.502 90.8691 -95.7031 75.8789 -96.4844 L 75.8789 -107.91 C 75.8789 -109.766 74.5605 -111.133 72.7051 -111.133 C 70.8984 -111.133 69.5801 -109.766 69.5801 -107.91 L 69.5801 -96.4844 C 37.2559 -94.8242 11.2793 -67.8223 11.2793 -35.1074 C 11.2793 -1.36719 38.9648 26.3184 72.7051 26.3184 Z M 72.7051 22.3145 C 41.0156 22.3145 15.2832 -3.41797 15.2832 -35.1074 C 15.2832 -66.8457 41.0156 -92.5781 72.7051 -92.5781 C 104.395 -92.5781 130.176 -66.8457 130.176 -35.1074 C 130.176 -3.41797 104.443 22.3145 72.7051 22.3145 Z M 72.7051 -28.3691 C 76.4648 -28.3691 79.3945 -31.2988 79.3945 -35.2051 C 79.3945 -37.8418 77.8809 -40.0879 74.707 -41.4551 L 74.707 -80.2734 C 74.707 -81.2988 73.8281 -82.0801 72.7051 -82.0801 C 71.7285 -82.0801 70.8984 -81.2988 70.8984 -80.2734 L 70.8984 -41.6016 C 67.7246 -40.1855 66.0645 -37.8906 66.0645 -35.2051 C 66.0645 -31.3477 68.9453 -28.3691 72.7051 -28.3691 Z"/>
  </g>
  <g id="Ultralight-L" transform="matrix(1 0 0 1 487.616 1556)">
   <path d="M 72.1191 25.7324 C 105.566 25.7324 132.91 -1.61133 132.91 -35.1074 C 132.91 -50.4883 127.1 -64.5996 117.578 -75.3418 L 127.051 -84.8633 C 127.637 -85.4492 127.881 -86.0352 127.881 -86.7676 C 127.881 -87.9395 126.855 -88.9648 125.537 -88.9648 C 124.854 -88.9648 124.268 -88.7695 123.73 -88.2324 L 114.258 -78.8086 C 103.857 -88.8672 89.8438 -95.2637 74.4629 -95.8496 L 74.4629 -108.496 C 74.4629 -109.863 73.4863 -110.889 72.1191 -110.889 C 70.7031 -110.889 69.7754 -109.863 69.7754 -108.496 L 69.7754 -95.8496 C 37.3535 -94.6289 11.2793 -67.7734 11.2793 -35.1074 C 11.2793 -1.61133 38.623 25.7324 72.1191 25.7324 Z M 72.1191 23.2422 C 39.9414 23.2422 13.7695 -2.97852 13.7695 -35.1074 C 13.7695 -67.2363 39.9414 -93.4082 72.1191 -93.4082 C 87.793 -93.4082 102.002 -87.207 112.5 -77.0996 L 112.402 -76.9531 L 115.82 -73.584 L 115.869 -73.584 C 124.902 -63.3301 130.42 -49.8535 130.42 -35.1074 C 130.42 -2.97852 104.248 23.2422 72.1191 23.2422 Z M 72.1191 -29.1016 C 75.4395 -29.1016 77.9785 -31.6895 77.9785 -35.2051 C 77.9785 -37.5488 76.6113 -39.502 73.5352 -40.8203 L 73.5352 -81.2988 C 73.5352 -82.0312 72.9004 -82.5195 72.1191 -82.5195 C 71.4355 -82.5195 70.8496 -82.0312 70.8496 -81.2988 L 70.8496 -41.0156 C 67.7246 -39.6973 66.2109 -37.6465 66.2109 -35.2051 C 66.2109 -31.7383 68.75 -29.1016 72.1191 -29.1016 Z"/>
  </g>
  <g id="Black-M" transform="matrix(1 0 0 1 2870.97 1126)">
   <path d="M 62.4023 18.457 C 91.9922 18.457 116.113 -5.61523 116.113 -35.2051 C 116.113 -45.459 113.184 -55.0293 108.203 -63.1836 L 112.744 -67.627 C 114.6 -69.3848 115.381 -71.0938 115.381 -73.2422 C 115.381 -77.3438 112.207 -80.6152 108.057 -80.6152 C 105.615 -80.6152 103.906 -79.9316 102.197 -78.3203 L 98.5352 -74.8535 C 90.7715 -81.9336 80.9082 -86.7676 70.0684 -88.3301 L 70.0684 -94.2871 C 70.0684 -98.584 66.6992 -101.709 62.5 -101.709 C 58.3984 -101.709 54.834 -98.584 54.834 -94.2871 L 54.834 -88.3301 C 28.8086 -84.668 8.74023 -62.207 8.74023 -35.2051 C 8.74023 -5.61523 32.8125 18.457 62.4023 18.457 Z M 62.4023 0.195312 C 42.8711 0.195312 27.002 -15.625 27.002 -35.2051 C 27.002 -54.7363 42.8711 -70.6055 62.4023 -70.6055 C 81.9824 -70.6055 97.8027 -54.7363 97.8027 -35.2051 C 97.8027 -15.625 81.9824 0.195312 62.4023 0.195312 Z M 62.4023 -24.1699 C 68.5059 -24.1699 73.4375 -29.1016 73.4375 -35.2051 C 73.4375 -38.9648 71.582 -42.2363 68.7012 -44.2871 L 68.7012 -58.7402 C 68.7012 -62.2559 65.918 -64.9902 62.4023 -64.9902 C 58.8867 -64.9902 56.1523 -62.2559 56.1523 -58.7402 L 56.1523 -44.2871 C 53.2715 -42.2363 51.3672 -38.9648 51.3672 -35.2051 C 51.3672 -29.1016 56.3477 -24.1699 62.4023 -24.1699 Z"/>
  </g>
  <g id="Heavy-M" transform="matrix(1 0 0 1 2575.19 1126)">
   <path d="M 61.5234 17.5781 C 90.5273 17.5781 114.258 -6.15234 114.258 -35.2051 C 114.258 -45.752 111.133 -55.5664 105.762 -63.8184 L 110.107 -68.0664 C 111.768 -69.6777 112.549 -71.3379 112.549 -73.291 C 112.549 -77.0996 109.619 -80.0781 105.762 -80.0781 C 103.516 -80.0781 101.953 -79.4434 100.342 -77.9297 L 96.6797 -74.4629 C 88.9648 -81.3477 79.248 -86.0352 68.5547 -87.5 L 68.5547 -93.1641 C 68.5547 -97.168 65.4297 -100.146 61.5234 -100.146 C 57.7637 -100.146 54.4434 -97.168 54.4434 -93.1641 L 54.4434 -87.5 C 28.7109 -84.0332 8.74023 -61.8652 8.74023 -35.2051 C 8.74023 -6.15234 32.4707 17.5781 61.5234 17.5781 Z M 61.5234 1.66016 C 41.1133 1.66016 24.6582 -14.8438 24.6582 -35.2051 C 24.6582 -55.5664 41.1133 -72.0703 61.4746 -72.0703 C 81.8848 -72.0703 98.3398 -55.5664 98.3398 -35.2051 C 98.3398 -14.8438 81.8848 1.66016 61.5234 1.66016 Z M 61.5234 -24.9023 C 67.1875 -24.9023 71.7773 -29.541 71.7773 -35.2051 C 71.7773 -38.7695 69.9219 -41.9434 67.0898 -43.7988 L 67.0898 -60.5469 C 67.0898 -63.7207 64.6484 -66.1621 61.4746 -66.1621 C 58.3496 -66.1621 55.9082 -63.7207 55.9082 -60.5469 L 55.9082 -43.7988 C 53.0762 -41.9434 51.2207 -38.7695 51.2207 -35.2051 C 51.2207 -29.541 55.8105 -24.9023 61.5234 -24.9023 Z"/>
  </g>
  <g id="Bold-M" transform="matrix(1 0 0 1 2279.5 1126)">
   <path d="M 60.498 16.5039 C 88.8672 16.5039 112.207 -6.78711 112.207 -35.2051 C 112.207 -46.0449 108.838 -56.1035 103.076 -64.4531 L 107.178 -68.5547 C 108.643 -70.0195 109.375 -71.582 109.375 -73.3398 C 109.375 -76.7578 106.689 -79.4922 103.223 -79.4922 C 101.172 -79.4922 99.707 -78.9062 98.2422 -77.5391 L 94.5801 -73.9746 C 86.9629 -80.7129 77.3926 -85.2051 66.8945 -86.5723 L 66.8945 -91.8945 C 66.8945 -95.5566 64.0625 -98.3398 60.498 -98.3398 C 57.0312 -98.3398 54.0527 -95.5566 54.0527 -91.8945 L 54.0527 -86.5723 C 28.6133 -83.3496 8.74023 -61.4746 8.74023 -35.2051 C 8.74023 -6.78711 32.0801 16.5039 60.498 16.5039 Z M 60.498 3.22266 C 39.1602 3.22266 22.0703 -13.916 22.0703 -35.2051 C 22.0703 -56.4941 39.1602 -73.6816 60.4492 -73.6816 C 81.7383 -73.6816 98.9258 -56.4941 98.9258 -35.2051 C 98.9746 -13.916 81.7871 3.22266 60.498 3.22266 Z M 60.498 -25.7324 C 65.6738 -25.7324 69.9219 -29.9805 69.9219 -35.2051 C 69.9219 -38.623 68.1152 -41.6016 65.2832 -43.2617 L 65.2832 -62.6465 C 65.2832 -65.332 63.1836 -67.4805 60.4492 -67.4805 C 57.7637 -67.4805 55.6152 -65.332 55.6152 -62.6465 L 55.6152 -43.3105 C 52.832 -41.6016 51.0254 -38.623 51.0254 -35.2051 C 51.0254 -29.9805 55.2246 -25.7324 60.498 -25.7324 Z"/>
  </g>
  <g id="Semibold-M" transform="matrix(1 0 0 1 1983.5 1126)">
   <path d="M 59.7656 15.8203 C 87.7441 15.8203 110.791 -7.22656 110.791 -35.2051 C 110.791 -46.2402 107.227 -56.4941 101.172 -64.8926 L 105.176 -68.8965 C 106.494 -70.2148 107.227 -71.7773 107.227 -73.3398 C 107.227 -76.5625 104.688 -79.1016 101.416 -79.1016 C 99.5117 -79.1016 98.1934 -78.5645 96.8262 -77.2461 L 93.1641 -73.6816 C 85.5957 -80.2246 76.123 -84.668 65.7715 -85.8887 L 65.7715 -91.0645 C 65.7715 -94.4336 63.0859 -97.1191 59.7656 -97.1191 C 56.543 -97.1191 53.7598 -94.4336 53.7598 -91.0645 L 53.7598 -85.8887 C 28.5645 -82.9102 8.74023 -61.1816 8.74023 -35.2051 C 8.74023 -7.22656 31.7871 15.8203 59.7656 15.8203 Z M 59.7656 4.3457 C 37.8418 4.3457 20.2637 -13.2812 20.2637 -35.2051 C 20.2637 -57.1289 37.793 -74.8047 59.7656 -74.8047 C 81.6895 -74.8047 99.3164 -57.1289 99.3652 -35.2051 C 99.3652 -13.2812 81.6895 4.3457 59.7656 4.3457 Z M 59.7656 -26.3184 C 64.6973 -26.3184 68.6523 -30.3223 68.6523 -35.2051 C 68.6523 -38.5254 66.8457 -41.3574 64.0625 -42.9199 L 64.0625 -64.0625 C 64.0625 -66.4551 62.1582 -68.3594 59.7656 -68.3594 C 57.3242 -68.3594 55.4199 -66.4551 55.4199 -64.0625 L 55.4199 -42.9199 C 52.6855 -41.3574 50.8789 -38.4766 50.8789 -35.2051 C 50.8789 -30.3223 54.834 -26.3184 59.7656 -26.3184 Z"/>
  </g>
  <g id="Medium-M" transform="matrix(1 0 0 1 1687.3 1126)">
   <path d="M 59.2285 15.2832 C 86.9141 15.2832 109.766 -7.56836 109.766 -35.2051 C 109.766 -46.3867 106.006 -56.7871 99.707 -65.2344 L 103.613 -69.1406 C 104.883 -70.4102 105.566 -71.9238 105.566 -73.3887 C 105.566 -76.416 103.174 -78.8086 100.098 -78.8086 C 98.291 -78.8086 97.0215 -78.2715 95.752 -77.0508 L 92.041 -73.4375 C 84.5703 -79.8828 75.1465 -84.2285 64.8926 -85.4004 L 64.8926 -90.3809 C 64.8926 -93.6035 62.3535 -96.1914 59.2285 -96.1914 C 56.1523 -96.1914 53.5645 -93.6035 53.5645 -90.3809 L 53.5645 -85.4004 C 28.5156 -82.5684 8.74023 -60.9863 8.74023 -35.2051 C 8.74023 -7.56836 31.5918 15.2832 59.2285 15.2832 Z M 59.2285 5.17578 C 36.8164 5.17578 18.8965 -12.8418 18.8965 -35.2051 C 18.8965 -57.6172 36.8164 -75.6348 59.1797 -75.6348 C 81.5918 -75.6348 99.6094 -57.6172 99.6582 -35.2051 C 99.707 -12.8418 81.6406 5.17578 59.2285 5.17578 Z M 59.2285 -26.7578 C 63.916 -26.7578 67.6758 -30.5664 67.6758 -35.2051 C 67.6758 -38.4277 65.8691 -41.1621 63.1348 -42.6758 L 63.1348 -65.1367 C 63.1348 -67.334 61.4258 -69.043 59.1797 -69.043 C 57.0312 -69.043 55.3223 -67.334 55.3223 -65.1367 L 55.3223 -42.6758 C 52.5879 -41.1621 50.7812 -38.3789 50.7812 -35.2051 C 50.7812 -30.5664 54.541 -26.7578 59.2285 -26.7578 Z"/>
  </g>
  <g id="Regular-M" transform="matrix(1 0 0 1 1391.3 1126)">
   <path d="M 58.5449 14.5508 C 85.791 14.5508 108.35 -8.00781 108.35 -35.2539 C 108.35 -46.6309 104.395 -57.1777 97.8027 -65.625 L 101.611 -69.4824 C 102.734 -70.6055 103.369 -72.1191 103.369 -73.4375 C 103.369 -76.1719 101.172 -78.3691 98.3398 -78.3691 C 96.6797 -78.3691 95.5078 -77.8809 94.3359 -76.7578 L 90.625 -73.0957 C 83.1543 -79.4434 73.877 -83.6914 63.7207 -84.7656 L 63.7207 -89.5508 C 63.7207 -92.4805 61.4258 -94.9219 58.4961 -94.9219 C 55.6641 -94.9219 53.2715 -92.4805 53.2715 -89.5508 L 53.2715 -84.7656 C 28.418 -82.0801 8.74023 -60.6934 8.74023 -35.2539 C 8.74023 -8.00781 31.3477 14.5508 58.5449 14.5508 Z M 58.5449 6.25 C 35.498 6.25 17.0898 -12.207 17.0898 -35.2539 C 17.0898 -58.252 35.4492 -76.7578 58.4961 -76.7578 C 81.543 -76.7578 100 -58.252 100.049 -35.2539 C 100.098 -12.207 81.5918 6.25 58.5449 6.25 Z M 58.5449 -27.3438 C 62.8906 -27.3438 66.4062 -30.8594 66.4062 -35.2051 C 66.4062 -38.2812 64.6484 -40.9668 61.9141 -42.2852 L 61.9141 -66.5527 C 61.9141 -68.457 60.4004 -69.9219 58.4961 -69.9219 C 56.5918 -69.9219 55.127 -68.457 55.127 -66.5527 L 55.127 -42.334 C 52.4414 -40.918 50.6836 -38.2812 50.6836 -35.2051 C 50.6836 -30.8594 54.1504 -27.3438 58.5449 -27.3438 Z"/>
  </g>
  <g id="Light-M" transform="matrix(1 0 0 1 1095.42 1126)">
   <path d="M 57.7148 13.7695 C 84.5215 13.7695 106.689 -8.39844 106.689 -35.2051 C 106.689 -46.7773 102.588 -57.4219 95.752 -65.8691 L 100.635 -70.8008 C 101.562 -71.7285 102.051 -72.9004 102.051 -73.9746 C 102.051 -76.1719 100.293 -77.9297 97.998 -77.9297 C 96.7285 -77.9297 95.752 -77.5391 94.8242 -76.6113 L 89.9902 -71.875 C 82.3242 -78.6133 72.5586 -83.0566 61.8652 -83.9844 L 61.8652 -90.2832 C 61.8652 -92.6758 60.0098 -94.6289 57.666 -94.6289 C 55.3711 -94.6289 53.5156 -92.6758 53.5156 -90.2832 L 53.5156 -83.9844 C 28.6133 -81.8359 8.74023 -60.5957 8.74023 -35.2051 C 8.74023 -8.39844 30.9082 13.7695 57.7148 13.7695 Z M 57.7148 7.4707 C 34.082 7.4707 15.0879 -11.5723 15.0879 -35.2051 C 15.0879 -58.8379 34.082 -77.832 57.666 -77.832 C 81.2988 -77.832 100.342 -58.8379 100.391 -35.2051 C 100.391 -11.5723 81.3477 7.4707 57.7148 7.4707 Z M 57.7148 -28.3203 C 61.5234 -28.3203 64.5508 -31.3477 64.5508 -35.2051 C 64.5508 -37.8906 62.9883 -40.1855 60.4004 -41.4551 L 60.4004 -67.8711 C 60.4004 -69.3848 59.2285 -70.5078 57.666 -70.5078 C 56.2012 -70.5078 55.0293 -69.3848 55.0293 -67.8711 L 55.0293 -41.5039 C 52.4414 -40.2344 50.8789 -37.8906 50.8789 -35.2051 C 50.8789 -31.3965 53.8574 -28.3203 57.7148 -28.3203 Z"/>
  </g>
  <g id="Thin-M" transform="matrix(1 0 0 1 799.806 1126)">
   <path d="M 56.6406 12.7441 C 82.9102 12.7441 104.492 -8.83789 104.492 -35.1562 C 104.492 -46.9238 100.146 -57.7637 93.0176 -66.1621 L 99.3652 -72.5098 C 100 -73.1445 100.293 -73.9258 100.293 -74.707 C 100.293 -76.123 99.1211 -77.2949 97.5586 -77.2949 C 96.7285 -77.2949 96.0938 -77.0508 95.459 -76.416 L 89.1602 -70.166 C 81.2012 -77.5391 70.8008 -82.2754 59.375 -82.959 L 59.375 -91.3086 C 59.375 -92.9199 58.2031 -94.1895 56.5918 -94.1895 C 55.0293 -94.1895 53.8086 -92.9199 53.8086 -91.3086 L 53.8086 -82.959 C 28.8086 -81.4941 8.74023 -60.5469 8.74023 -35.1562 C 8.74023 -8.83789 30.3223 12.7441 56.6406 12.7441 Z M 56.6406 8.98438 C 32.2266 8.98438 12.4512 -10.791 12.4512 -35.1562 C 12.4512 -59.5215 32.2266 -79.2969 56.5918 -79.2969 C 81.0059 -79.2969 100.781 -59.5215 100.781 -35.1562 C 100.781 -10.791 81.0059 8.98438 56.6406 8.98438 Z M 56.6406 -29.5898 C 59.7168 -29.5898 62.1094 -32.0312 62.1094 -35.2051 C 62.1094 -37.3535 60.8398 -39.209 58.3496 -40.332 L 58.3496 -69.6777 C 58.3496 -70.6543 57.6172 -71.3379 56.5918 -71.3379 C 55.7129 -71.3379 54.9805 -70.6543 54.9805 -69.6777 L 54.9805 -40.4297 C 52.4902 -39.3066 51.123 -37.4023 51.123 -35.2051 C 51.123 -32.0801 53.5156 -29.5898 56.6406 -29.5898 Z"/>
  </g>
  <g id="Ultralight-M" transform="matrix(1 0 0 1 503.656 1126)">
   <path d="M 56.0547 12.207 C 82.0801 12.207 103.369 -9.08203 103.369 -35.1562 C 103.369 -47.0215 98.9258 -57.959 91.6016 -66.3086 L 98.6816 -73.3887 C 99.1699 -73.877 99.4141 -74.4629 99.4141 -75.0488 C 99.4141 -76.0742 98.4863 -77.002 97.3633 -77.002 C 96.7285 -77.002 96.2402 -76.8066 95.752 -76.3184 L 88.7207 -69.3359 C 80.6641 -77.002 69.9219 -81.8848 58.1055 -82.4219 L 58.1055 -91.8457 C 58.1055 -93.0664 57.2754 -93.9453 56.0547 -93.9453 C 54.834 -93.9453 54.0039 -93.0664 54.0039 -91.8457 L 54.0039 -82.4219 C 28.9062 -81.2988 8.74023 -60.4492 8.74023 -35.1562 C 8.74023 -9.08203 30.0293 12.207 56.0547 12.207 Z M 56.0547 9.81445 C 31.2988 9.81445 11.1328 -10.3516 11.1328 -35.1562 C 11.1328 -59.9121 31.2988 -80.0781 56.0547 -80.0781 C 80.8594 -80.0781 100.977 -59.9121 100.977 -35.1562 C 100.977 -10.3516 80.8594 9.81445 56.0547 9.81445 Z M 56.0547 -30.2734 C 58.7891 -30.2734 60.8887 -32.373 60.8887 -35.2051 C 60.8887 -37.1094 59.7656 -38.7207 57.3242 -39.7461 L 57.3242 -70.6055 C 57.3242 -71.2891 56.7871 -71.7773 56.0547 -71.7773 C 55.4688 -71.7773 54.9316 -71.2891 54.9316 -70.6055 L 54.9316 -39.8926 C 52.4902 -38.8184 51.2695 -37.1582 51.2695 -35.2051 C 51.2695 -32.4219 53.3691 -30.2734 56.0547 -30.2734 Z"/>
  </g>
  <g id="Black-S" transform="matrix(1 0 0 1 2884.57 696)">
   <path d="M 48.8281 6.78711 C 71.9727 6.78711 90.8203 -12.0605 90.8203 -35.2051 C 90.8203 -43.2617 88.5254 -50.7812 84.5703 -57.1777 L 88.1348 -60.6445 C 89.5508 -62.0117 90.1855 -63.3301 90.1855 -64.9902 C 90.1855 -68.2129 87.6953 -70.752 84.4727 -70.752 C 82.5684 -70.752 81.25 -70.2148 79.8828 -68.9453 L 77.0508 -66.2598 C 70.9473 -71.7773 63.2812 -75.5859 54.7852 -76.7578 L 54.7852 -81.3965 C 54.7852 -84.7656 52.1484 -87.207 48.877 -87.207 C 45.7031 -87.207 42.9199 -84.7656 42.9199 -81.3965 L 42.9199 -76.8066 C 22.5586 -73.877 6.83594 -56.3477 6.83594 -35.2051 C 6.83594 -12.0605 25.6836 6.78711 48.8281 6.78711 Z M 48.8281 -7.37305 C 33.4473 -7.37305 20.9961 -19.8242 20.9961 -35.2051 C 20.9961 -50.5859 33.4473 -63.0371 48.8281 -63.0371 C 64.209 -63.0371 76.6602 -50.5859 76.6602 -35.2051 C 76.6602 -19.8242 64.209 -7.37305 48.8281 -7.37305 Z M 48.8281 -26.6113 C 53.5645 -26.6113 57.4219 -30.4688 57.4219 -35.2051 C 57.4219 -38.1348 55.957 -40.7227 53.7109 -42.2852 L 53.7109 -53.7598 C 53.7109 -56.4941 51.5625 -58.6426 48.8281 -58.6426 C 46.0938 -58.6426 43.9453 -56.4941 43.9453 -53.7598 L 43.9453 -42.2852 C 41.6992 -40.7227 40.2344 -38.1348 40.2344 -35.2051 C 40.2344 -30.4688 44.0918 -26.6113 48.8281 -26.6113 Z"/>
  </g>
  <g id="Heavy-S" transform="matrix(1 0 0 1 2588.47 696)">
   <path d="M 48.2422 6.15234 C 70.9961 6.15234 89.5996 -12.4512 89.5996 -35.2051 C 89.5996 -43.457 87.1582 -51.1719 82.959 -57.6172 L 86.2305 -60.8398 C 87.5488 -62.1094 88.1836 -63.4277 88.1836 -64.9414 C 88.1836 -68.0176 85.791 -70.4102 82.7637 -70.4102 C 80.957 -70.4102 79.6875 -69.873 78.418 -68.7012 L 75.6836 -66.1133 C 69.6777 -71.4355 62.1582 -75.0488 53.8574 -76.2207 L 53.8574 -80.4688 C 53.8574 -83.6426 51.3672 -86.0352 48.2422 -86.0352 C 45.2148 -86.0352 42.627 -83.6426 42.627 -80.4688 L 42.627 -76.2207 C 22.4609 -73.4863 6.83594 -56.0547 6.83594 -35.2051 C 6.83594 -12.4512 25.4395 6.15234 48.2422 6.15234 Z M 48.2422 -6.39648 C 32.2754 -6.39648 19.4336 -19.2871 19.4336 -35.2051 C 19.4336 -51.1719 32.2754 -64.0137 48.1934 -64.0137 C 64.1602 -64.0137 77.002 -51.1719 77.0508 -35.2051 C 77.0508 -19.2871 64.1602 -6.39648 48.2422 -6.39648 Z M 48.2422 -27.0508 C 52.6855 -27.0508 56.3477 -30.7129 56.3477 -35.2051 C 56.3477 -38.0859 54.8828 -40.5762 52.6367 -42.041 L 52.6367 -55.0293 C 52.6367 -57.5195 50.6836 -59.4727 48.1934 -59.4727 C 45.7031 -59.4727 43.75 -57.5195 43.75 -55.0293 L 43.75 -42.041 C 41.5527 -40.5762 40.0879 -38.0371 40.0879 -35.2051 C 40.0879 -30.7129 43.7012 -27.0508 48.2422 -27.0508 Z"/>
  </g>
  <g id="Bold-S" transform="matrix(1 0 0 1 2292.44 696)">
   <path d="M 47.5586 5.46875 C 69.873 5.46875 88.2324 -12.8906 88.2324 -35.2051 C 88.2324 -43.6523 85.5957 -51.5625 81.1523 -58.1055 L 84.082 -61.0352 C 85.3027 -62.207 85.8887 -63.5254 85.8887 -64.9414 C 85.8887 -67.7734 83.6914 -70.0195 80.8105 -70.0195 C 79.1504 -70.0195 77.9785 -69.5312 76.7578 -68.4082 L 74.1699 -65.918 C 68.2617 -71.0449 60.8887 -74.5117 52.832 -75.5859 L 52.832 -79.3945 C 52.832 -82.373 50.4395 -84.668 47.5586 -84.668 C 44.7266 -84.668 42.2363 -82.373 42.2363 -79.3945 L 42.2363 -75.5859 C 22.3633 -72.998 6.83594 -55.7617 6.83594 -35.2051 C 6.83594 -12.8906 25.1953 5.46875 47.5586 5.46875 Z M 47.5586 -5.32227 C 30.957 -5.32227 17.6758 -18.6523 17.6758 -35.2051 C 17.6758 -51.8066 30.957 -65.1367 47.5098 -65.1367 C 64.1113 -65.1367 77.4414 -51.8066 77.4414 -35.2051 C 77.4414 -18.6523 64.1113 -5.32227 47.5586 -5.32227 Z M 47.5586 -27.5879 C 51.7578 -27.5879 55.1758 -31.0059 55.1758 -35.2051 C 55.1758 -37.9883 53.6621 -40.3809 51.4648 -41.748 L 51.4648 -56.4453 C 51.4648 -58.6426 49.7559 -60.3516 47.5098 -60.3516 C 45.3125 -60.3516 43.5547 -58.6426 43.5547 -56.4453 L 43.5547 -41.748 C 41.4062 -40.3809 39.8926 -37.9395 39.8926 -35.2051 C 39.8926 -31.0059 43.3105 -27.5879 47.5586 -27.5879 Z"/>
  </g>
  <g id="Semibold-S" transform="matrix(1 0 0 1 1996.2 696)">
   <path d="M 47.0703 4.98047 C 69.0918 4.98047 87.3047 -13.1836 87.3047 -35.2539 C 87.3047 -43.8477 84.5215 -51.8066 79.8828 -58.3984 L 82.6172 -61.1816 C 83.7402 -62.3047 84.375 -63.623 84.375 -64.8926 C 84.375 -67.627 82.2266 -69.7266 79.4922 -69.7266 C 77.9297 -69.7266 76.7578 -69.2871 75.6348 -68.2129 L 73.1445 -65.7715 C 67.2852 -70.752 60.0098 -74.1211 52.0996 -75.1465 L 52.0996 -78.6621 C 52.0996 -81.543 49.8535 -83.7891 47.0703 -83.7891 C 44.3359 -83.7891 41.9922 -81.543 41.9922 -78.6621 L 41.9922 -75.1465 C 22.3145 -72.6562 6.83594 -55.5664 6.83594 -35.2539 C 6.83594 -13.1836 25.0488 4.98047 47.0703 4.98047 Z M 47.0703 -4.58984 C 30.0781 -4.58984 16.4551 -18.2129 16.4551 -35.2539 C 16.4551 -52.2461 30.0293 -65.8691 47.0215 -65.8691 C 64.0625 -65.8691 77.6855 -52.2461 77.7344 -35.2539 C 77.7344 -18.2129 64.0625 -4.58984 47.0703 -4.58984 Z M 47.0703 -27.9297 C 51.0742 -27.9297 54.3457 -31.2012 54.3457 -35.2051 C 54.3457 -37.9395 52.832 -40.2832 50.6348 -41.5527 L 50.6348 -57.4219 C 50.6348 -59.4238 49.0723 -60.9863 47.0215 -60.9863 C 45.0195 -60.9863 43.457 -59.4238 43.457 -57.4219 L 43.457 -41.5527 C 41.2598 -40.2344 39.7949 -37.8906 39.7949 -35.2051 C 39.7949 -31.2012 43.0176 -27.9297 47.0703 -27.9297 Z"/>
  </g>
  <g id="Medium-S" transform="matrix(1 0 0 1 1699.83 696)">
   <path d="M 46.7285 4.63867 C 68.5547 4.63867 86.6211 -13.4277 86.6211 -35.2539 C 86.6211 -43.9453 83.7402 -52.0508 78.9062 -58.6426 L 81.543 -61.2793 C 82.5684 -62.3535 83.1543 -63.6719 83.1543 -64.8926 C 83.1543 -67.4805 81.1523 -69.5312 78.5156 -69.5312 C 76.9531 -69.5312 75.8789 -69.0918 74.7559 -68.0664 L 72.3145 -65.6738 C 66.5527 -70.5566 59.375 -73.8281 51.5625 -74.8047 L 51.5625 -78.125 C 51.5625 -80.8594 49.3652 -83.0566 46.6797 -83.0566 C 44.0918 -83.0566 41.8457 -80.8594 41.8457 -78.125 L 41.8457 -74.8047 C 22.2656 -72.3633 6.83594 -55.4199 6.83594 -35.2539 C 6.83594 -13.4277 24.9023 4.63867 46.7285 4.63867 Z M 46.7285 -4.00391 C 29.3945 -4.00391 15.5273 -17.9199 15.5273 -35.2539 C 15.5273 -52.5879 29.3457 -66.4551 46.6797 -66.4551 C 64.0137 -66.4551 77.8809 -52.5879 77.9297 -35.2539 C 77.9785 -17.9199 64.0625 -4.00391 46.7285 -4.00391 Z M 46.7285 -28.2227 C 50.5859 -28.2227 53.7109 -31.3965 53.7109 -35.2051 C 53.7109 -37.8906 52.2461 -40.1855 50.0488 -41.3574 L 50.0488 -58.1543 C 50.0488 -60.0098 48.584 -61.4746 46.6797 -61.4746 C 44.8242 -61.4746 43.3594 -60.0098 43.3594 -58.1543 L 43.3594 -41.3574 C 41.1621 -40.1367 39.6973 -37.8418 39.6973 -35.2051 C 39.6973 -31.3965 42.8223 -28.2227 46.7285 -28.2227 Z"/>
  </g>
  <g id="Regular-S" transform="matrix(1 0 0 1 1403.58 696)">
   <path d="M 46.2402 4.15039 C 67.7734 4.15039 85.6934 -13.7207 85.6934 -35.2539 C 85.6934 -44.0918 82.666 -52.2949 77.5879 -58.9355 L 80.0781 -61.4258 C 81.0547 -62.4023 81.6406 -63.7207 81.6406 -64.8926 C 81.6406 -67.334 79.6875 -69.2871 77.1973 -69.2871 C 75.7324 -69.2871 74.707 -68.8477 73.6816 -67.8711 L 71.2891 -65.5273 C 65.5762 -70.2637 58.4961 -73.4863 50.8301 -74.4141 L 50.8301 -77.3926 C 50.8301 -80.0293 48.7793 -82.1777 46.1914 -82.1777 C 43.7012 -82.1777 41.6016 -80.0293 41.6016 -77.3926 L 41.6016 -74.4141 C 22.2168 -72.0703 6.83594 -55.2246 6.83594 -35.2539 C 6.83594 -13.7207 24.7559 4.15039 46.2402 4.15039 Z M 46.2402 -3.27148 C 28.5156 -3.27148 14.3555 -17.4805 14.3555 -35.2539 C 14.3555 -53.0273 28.4668 -67.2363 46.1914 -67.2363 C 63.9648 -67.2363 78.1738 -53.0273 78.2227 -35.2539 C 78.2715 -17.4805 64.0137 -3.27148 46.2402 -3.27148 Z M 46.2402 -28.5645 C 49.9512 -28.5645 52.8809 -31.5918 52.8809 -35.2051 C 52.8809 -37.8418 51.416 -40.0879 49.2188 -41.1621 L 49.2188 -59.082 C 49.2188 -60.791 47.9004 -62.1094 46.1914 -62.1094 C 44.5312 -62.1094 43.2129 -60.791 43.2129 -59.082 L 43.2129 -41.1621 C 41.0645 -40.0391 39.5996 -37.793 39.5996 -35.2051 C 39.5996 -31.5918 42.5293 -28.5645 46.2402 -28.5645 Z"/>
  </g>
  <g id="Light-S" transform="matrix(1 0 0 1 1107.6 696)">
   <path d="M 45.5078 3.4668 C 66.6992 3.4668 84.2285 -14.0625 84.2285 -35.2051 C 84.2285 -44.1895 81.0547 -52.5391 75.7812 -59.1309 L 79.1992 -62.5977 C 80.0293 -63.3789 80.4688 -64.4531 80.4688 -65.3809 C 80.4688 -67.2852 78.9062 -68.8477 76.9043 -68.8477 C 75.7324 -68.8477 74.9023 -68.5059 74.0723 -67.7246 L 70.752 -64.4043 C 64.7949 -69.5312 57.3242 -72.9492 49.1699 -73.7305 L 49.1699 -78.0762 C 49.1699 -80.1758 47.5586 -81.8848 45.5078 -81.8848 C 43.457 -81.8848 41.7969 -80.1758 41.7969 -78.0762 L 41.7969 -73.7305 C 22.3145 -71.8262 6.83594 -55.127 6.83594 -35.2051 C 6.83594 -14.0625 24.3652 3.4668 45.5078 3.4668 Z M 45.5078 -2.24609 C 27.2461 -2.24609 12.5977 -16.9434 12.5977 -35.2051 C 12.5977 -53.5156 27.1973 -68.2129 45.5078 -68.2129 C 63.7695 -68.2129 78.4668 -53.5156 78.5156 -35.2051 C 78.5156 -16.9434 63.8184 -2.24609 45.5078 -2.24609 Z M 45.5078 -29.4434 C 48.7305 -29.4434 51.2695 -32.0312 51.2695 -35.2051 C 51.2695 -37.5 49.9512 -39.4043 47.9004 -40.4297 L 47.9004 -60.3027 C 47.9004 -61.6211 46.8262 -62.6465 45.5078 -62.6465 C 44.1895 -62.6465 43.1641 -61.6211 43.1641 -60.3027 L 43.1641 -40.4785 C 41.0645 -39.4043 39.7461 -37.4512 39.7461 -35.2051 C 39.7461 -32.0312 42.2852 -29.4434 45.5078 -29.4434 Z"/>
  </g>
  <g id="Thin-S" transform="matrix(1 0 0 1 811.867 696)">
   <path d="M 44.5801 2.53906 C 65.2832 2.53906 82.2754 -14.4531 82.2754 -35.2051 C 82.2754 -44.3848 78.9062 -52.832 73.3887 -59.4238 L 78.0762 -64.1113 C 78.6133 -64.6484 78.9062 -65.332 78.9062 -66.0156 C 78.9062 -67.2852 77.8809 -68.3105 76.5137 -68.3105 C 75.7812 -68.3105 75.1953 -68.1152 74.6582 -67.5293 L 70.0195 -62.9395 C 63.8184 -68.6035 55.8105 -72.2656 46.9727 -72.8027 L 46.9727 -78.9551 C 46.9727 -80.3711 45.9473 -81.4941 44.5312 -81.4941 C 43.1641 -81.4941 42.0898 -80.3711 42.0898 -78.9551 L 42.0898 -72.8027 C 22.5098 -71.5332 6.83594 -55.0781 6.83594 -35.2051 C 6.83594 -14.4531 23.877 2.53906 44.5801 2.53906 Z M 44.5801 -0.878906 C 25.5859 -0.878906 10.2539 -16.2109 10.2539 -35.2051 C 10.2539 -54.1504 25.5859 -69.4824 44.5312 -69.4824 C 63.5254 -69.4824 78.8574 -54.1504 78.8574 -35.2051 C 78.8574 -16.2109 63.5254 -0.878906 44.5801 -0.878906 Z M 44.5801 -30.5664 C 47.1191 -30.5664 49.1211 -32.5684 49.1211 -35.2051 C 49.1211 -37.0117 48.0957 -38.5254 46.0938 -39.4531 L 46.0938 -61.8652 C 46.0938 -62.7441 45.4102 -63.3789 44.5312 -63.3789 C 43.75 -63.3789 43.0664 -62.7441 43.0664 -61.8652 L 43.0664 -39.502 C 41.1133 -38.623 39.9902 -37.0605 39.9902 -35.2051 C 39.9902 -32.6172 41.9922 -30.5664 44.5801 -30.5664 Z"/>
  </g>
  <g id="Ultralight-S" transform="matrix(1 0 0 1 515.644 696)">
   <path d="M 44.043 2.05078 C 64.502 2.05078 81.2988 -14.6973 81.2988 -35.1562 C 81.2988 -44.4336 77.832 -52.9785 72.1191 -59.5215 L 77.4902 -64.8926 C 77.8809 -65.332 78.125 -65.8203 78.125 -66.3086 C 78.125 -67.2363 77.3438 -68.0176 76.3184 -68.0176 C 75.7812 -68.0176 75.3418 -67.8711 74.9512 -67.4316 L 69.6289 -62.1582 C 63.3301 -68.1152 55.0293 -71.875 45.8496 -72.3633 L 45.8496 -79.4434 C 45.8496 -80.4688 45.1172 -81.2988 44.043 -81.2988 C 43.0176 -81.2988 42.2363 -80.4688 42.2363 -79.4434 L 42.2363 -72.3633 C 22.6074 -71.3867 6.83594 -55.0293 6.83594 -35.1562 C 6.83594 -14.6973 23.584 2.05078 44.043 2.05078 Z M 44.043 -0.146484 C 24.7559 -0.146484 9.08203 -15.8691 9.08203 -35.1562 C 9.08203 -54.4434 24.7559 -70.166 44.043 -70.166 C 63.3789 -70.166 79.0527 -54.4434 79.0527 -35.1562 C 79.0527 -15.8691 63.3789 -0.146484 44.043 -0.146484 Z M 44.043 -31.1523 C 46.2891 -31.1523 47.998 -32.9102 47.998 -35.2051 C 47.998 -36.7676 47.1191 -38.0859 45.166 -38.916 L 45.166 -62.6953 C 45.166 -63.2812 44.6777 -63.7207 44.043 -63.7207 C 43.5059 -63.7207 43.0176 -63.2812 43.0176 -62.6953 L 43.0176 -39.0137 C 41.1133 -38.1836 40.0879 -36.8164 40.0879 -35.2051 C 40.0879 -32.959 41.8457 -31.1523 44.043 -31.1523 Z"/>
  </g>
 </g>
</svg>
